<?xml version="1.0" encoding="utf-8" standalone="no"?>
<!DOCTYPE svg PUBLIC "-//W3C//DTD SVG 1.1//EN"
  "http://www.w3.org/Graphics/SVG/1.1/DTD/svg11.dtd">
<!-- Created with matplotlib (https://matplotlib.org/) -->
<svg height="324.185pt" version="1.1" viewBox="0 0 1443.071554 324.185" width="1443.071554pt" xmlns="http://www.w3.org/2000/svg" xmlns:xlink="http://www.w3.org/1999/xlink">
 <defs>
  <style type="text/css">
*{stroke-linecap:butt;stroke-linejoin:round;}
  </style>
 </defs>
 <g id="figure_1">
  <g id="patch_1">
   <path d="M 0 324.185 
L 1443.071554 324.185 
L 1443.071554 0 
L 0 0 
z
" style="fill:#ffffff;"/>
  </g>
  <g id="axes_1">
   <g id="patch_2">
    <path d="M 39.291562 289.9575 
L 1434.291563 289.9575 
L 1434.291563 18.1575 
L 39.291562 18.1575 
z
" style="fill:#ffffff;"/>
   </g>
   <g id="matplotlib.axis_1">
    <g id="xtick_1">
     <g id="line2d_1">
      <defs>
       <path d="M 0 0 
L 0 3.5 
" id="m215d816fca" style="stroke:#000000;stroke-width:0.8;"/>
      </defs>
      <g>
       <use style="stroke:#000000;stroke-width:0.8;" x="100.651264" xlink:href="#m215d816fca" y="289.9575"/>
      </g>
     </g>
     <g id="text_1">
      <!-- 910 -->
      <defs>
       <path d="M 10.984375 1.515625 
L 10.984375 10.5 
Q 14.703125 8.734375 18.5 7.8125 
Q 22.3125 6.890625 25.984375 6.890625 
Q 35.75 6.890625 40.890625 13.453125 
Q 46.046875 20.015625 46.78125 33.40625 
Q 43.953125 29.203125 39.59375 26.953125 
Q 35.25 24.703125 29.984375 24.703125 
Q 19.046875 24.703125 12.671875 31.3125 
Q 6.296875 37.9375 6.296875 49.421875 
Q 6.296875 60.640625 12.9375 67.421875 
Q 19.578125 74.21875 30.609375 74.21875 
Q 43.265625 74.21875 49.921875 64.515625 
Q 56.59375 54.828125 56.59375 36.375 
Q 56.59375 19.140625 48.40625 8.859375 
Q 40.234375 -1.421875 26.421875 -1.421875 
Q 22.703125 -1.421875 18.890625 -0.6875 
Q 15.09375 0.046875 10.984375 1.515625 
z
M 30.609375 32.421875 
Q 37.25 32.421875 41.125 36.953125 
Q 45.015625 41.5 45.015625 49.421875 
Q 45.015625 57.28125 41.125 61.84375 
Q 37.25 66.40625 30.609375 66.40625 
Q 23.96875 66.40625 20.09375 61.84375 
Q 16.21875 57.28125 16.21875 49.421875 
Q 16.21875 41.5 20.09375 36.953125 
Q 23.96875 32.421875 30.609375 32.421875 
z
" id="DejaVuSans-57"/>
       <path d="M 12.40625 8.296875 
L 28.515625 8.296875 
L 28.515625 63.921875 
L 10.984375 60.40625 
L 10.984375 69.390625 
L 28.421875 72.90625 
L 38.28125 72.90625 
L 38.28125 8.296875 
L 54.390625 8.296875 
L 54.390625 0 
L 12.40625 0 
z
" id="DejaVuSans-49"/>
       <path d="M 31.78125 66.40625 
Q 24.171875 66.40625 20.328125 58.90625 
Q 16.5 51.421875 16.5 36.375 
Q 16.5 21.390625 20.328125 13.890625 
Q 24.171875 6.390625 31.78125 6.390625 
Q 39.453125 6.390625 43.28125 13.890625 
Q 47.125 21.390625 47.125 36.375 
Q 47.125 51.421875 43.28125 58.90625 
Q 39.453125 66.40625 31.78125 66.40625 
z
M 31.78125 74.21875 
Q 44.046875 74.21875 50.515625 64.515625 
Q 56.984375 54.828125 56.984375 36.375 
Q 56.984375 17.96875 50.515625 8.265625 
Q 44.046875 -1.421875 31.78125 -1.421875 
Q 19.53125 -1.421875 13.0625 8.265625 
Q 6.59375 17.96875 6.59375 36.375 
Q 6.59375 54.828125 13.0625 64.515625 
Q 19.53125 74.21875 31.78125 74.21875 
z
" id="DejaVuSans-48"/>
      </defs>
      <g transform="translate(91.107514 304.555938)scale(0.1 -0.1)">
       <use xlink:href="#DejaVuSans-57"/>
       <use x="63.623047" xlink:href="#DejaVuSans-49"/>
       <use x="127.246094" xlink:href="#DejaVuSans-48"/>
      </g>
     </g>
    </g>
    <g id="xtick_2">
     <g id="line2d_2">
      <g>
       <use style="stroke:#000000;stroke-width:0.8;" x="164.121576" xlink:href="#m215d816fca" y="289.9575"/>
      </g>
     </g>
     <g id="text_2">
      <!-- 911 -->
      <g transform="translate(154.577826 304.555938)scale(0.1 -0.1)">
       <use xlink:href="#DejaVuSans-57"/>
       <use x="63.623047" xlink:href="#DejaVuSans-49"/>
       <use x="127.246094" xlink:href="#DejaVuSans-49"/>
      </g>
     </g>
    </g>
    <g id="xtick_3">
     <g id="line2d_3">
      <g>
       <use style="stroke:#000000;stroke-width:0.8;" x="227.591887" xlink:href="#m215d816fca" y="289.9575"/>
      </g>
     </g>
     <g id="text_3">
      <!-- 912 -->
      <defs>
       <path d="M 19.1875 8.296875 
L 53.609375 8.296875 
L 53.609375 0 
L 7.328125 0 
L 7.328125 8.296875 
Q 12.9375 14.109375 22.625 23.890625 
Q 32.328125 33.6875 34.8125 36.53125 
Q 39.546875 41.84375 41.421875 45.53125 
Q 43.3125 49.21875 43.3125 52.78125 
Q 43.3125 58.59375 39.234375 62.25 
Q 35.15625 65.921875 28.609375 65.921875 
Q 23.96875 65.921875 18.8125 64.3125 
Q 13.671875 62.703125 7.8125 59.421875 
L 7.8125 69.390625 
Q 13.765625 71.78125 18.9375 73 
Q 24.125 74.21875 28.421875 74.21875 
Q 39.75 74.21875 46.484375 68.546875 
Q 53.21875 62.890625 53.21875 53.421875 
Q 53.21875 48.921875 51.53125 44.890625 
Q 49.859375 40.875 45.40625 35.40625 
Q 44.1875 33.984375 37.640625 27.21875 
Q 31.109375 20.453125 19.1875 8.296875 
z
" id="DejaVuSans-50"/>
      </defs>
      <g transform="translate(218.048137 304.555938)scale(0.1 -0.1)">
       <use xlink:href="#DejaVuSans-57"/>
       <use x="63.623047" xlink:href="#DejaVuSans-49"/>
       <use x="127.246094" xlink:href="#DejaVuSans-50"/>
      </g>
     </g>
    </g>
    <g id="xtick_4">
     <g id="line2d_4">
      <g>
       <use style="stroke:#000000;stroke-width:0.8;" x="291.062198" xlink:href="#m215d816fca" y="289.9575"/>
      </g>
     </g>
     <g id="text_4">
      <!-- 913 -->
      <defs>
       <path d="M 40.578125 39.3125 
Q 47.65625 37.796875 51.625 33 
Q 55.609375 28.21875 55.609375 21.1875 
Q 55.609375 10.40625 48.1875 4.484375 
Q 40.765625 -1.421875 27.09375 -1.421875 
Q 22.515625 -1.421875 17.65625 -0.515625 
Q 12.796875 0.390625 7.625 2.203125 
L 7.625 11.71875 
Q 11.71875 9.328125 16.59375 8.109375 
Q 21.484375 6.890625 26.8125 6.890625 
Q 36.078125 6.890625 40.9375 10.546875 
Q 45.796875 14.203125 45.796875 21.1875 
Q 45.796875 27.640625 41.28125 31.265625 
Q 36.765625 34.90625 28.71875 34.90625 
L 20.21875 34.90625 
L 20.21875 43.015625 
L 29.109375 43.015625 
Q 36.375 43.015625 40.234375 45.921875 
Q 44.09375 48.828125 44.09375 54.296875 
Q 44.09375 59.90625 40.109375 62.90625 
Q 36.140625 65.921875 28.71875 65.921875 
Q 24.65625 65.921875 20.015625 65.03125 
Q 15.375 64.15625 9.8125 62.3125 
L 9.8125 71.09375 
Q 15.4375 72.65625 20.34375 73.4375 
Q 25.25 74.21875 29.59375 74.21875 
Q 40.828125 74.21875 47.359375 69.109375 
Q 53.90625 64.015625 53.90625 55.328125 
Q 53.90625 49.265625 50.4375 45.09375 
Q 46.96875 40.921875 40.578125 39.3125 
z
" id="DejaVuSans-51"/>
      </defs>
      <g transform="translate(281.518448 304.555938)scale(0.1 -0.1)">
       <use xlink:href="#DejaVuSans-57"/>
       <use x="63.623047" xlink:href="#DejaVuSans-49"/>
       <use x="127.246094" xlink:href="#DejaVuSans-51"/>
      </g>
     </g>
    </g>
    <g id="xtick_5">
     <g id="line2d_5">
      <g>
       <use style="stroke:#000000;stroke-width:0.8;" x="354.53251" xlink:href="#m215d816fca" y="289.9575"/>
      </g>
     </g>
     <g id="text_5">
      <!-- 914 -->
      <defs>
       <path d="M 37.796875 64.3125 
L 12.890625 25.390625 
L 37.796875 25.390625 
z
M 35.203125 72.90625 
L 47.609375 72.90625 
L 47.609375 25.390625 
L 58.015625 25.390625 
L 58.015625 17.1875 
L 47.609375 17.1875 
L 47.609375 0 
L 37.796875 0 
L 37.796875 17.1875 
L 4.890625 17.1875 
L 4.890625 26.703125 
z
" id="DejaVuSans-52"/>
      </defs>
      <g transform="translate(344.98876 304.555938)scale(0.1 -0.1)">
       <use xlink:href="#DejaVuSans-57"/>
       <use x="63.623047" xlink:href="#DejaVuSans-49"/>
       <use x="127.246094" xlink:href="#DejaVuSans-52"/>
      </g>
     </g>
    </g>
    <g id="xtick_6">
     <g id="line2d_6">
      <g>
       <use style="stroke:#000000;stroke-width:0.8;" x="418.002821" xlink:href="#m215d816fca" y="289.9575"/>
      </g>
     </g>
     <g id="text_6">
      <!-- 915 -->
      <defs>
       <path d="M 10.796875 72.90625 
L 49.515625 72.90625 
L 49.515625 64.59375 
L 19.828125 64.59375 
L 19.828125 46.734375 
Q 21.96875 47.46875 24.109375 47.828125 
Q 26.265625 48.1875 28.421875 48.1875 
Q 40.625 48.1875 47.75 41.5 
Q 54.890625 34.8125 54.890625 23.390625 
Q 54.890625 11.625 47.5625 5.09375 
Q 40.234375 -1.421875 26.90625 -1.421875 
Q 22.3125 -1.421875 17.546875 -0.640625 
Q 12.796875 0.140625 7.71875 1.703125 
L 7.71875 11.625 
Q 12.109375 9.234375 16.796875 8.0625 
Q 21.484375 6.890625 26.703125 6.890625 
Q 35.15625 6.890625 40.078125 11.328125 
Q 45.015625 15.765625 45.015625 23.390625 
Q 45.015625 31 40.078125 35.4375 
Q 35.15625 39.890625 26.703125 39.890625 
Q 22.75 39.890625 18.8125 39.015625 
Q 14.890625 38.140625 10.796875 36.28125 
z
" id="DejaVuSans-53"/>
      </defs>
      <g transform="translate(408.459071 304.555938)scale(0.1 -0.1)">
       <use xlink:href="#DejaVuSans-57"/>
       <use x="63.623047" xlink:href="#DejaVuSans-49"/>
       <use x="127.246094" xlink:href="#DejaVuSans-53"/>
      </g>
     </g>
    </g>
    <g id="xtick_7">
     <g id="line2d_7">
      <g>
       <use style="stroke:#000000;stroke-width:0.8;" x="481.473133" xlink:href="#m215d816fca" y="289.9575"/>
      </g>
     </g>
     <g id="text_7">
      <!-- 916 -->
      <defs>
       <path d="M 33.015625 40.375 
Q 26.375 40.375 22.484375 35.828125 
Q 18.609375 31.296875 18.609375 23.390625 
Q 18.609375 15.53125 22.484375 10.953125 
Q 26.375 6.390625 33.015625 6.390625 
Q 39.65625 6.390625 43.53125 10.953125 
Q 47.40625 15.53125 47.40625 23.390625 
Q 47.40625 31.296875 43.53125 35.828125 
Q 39.65625 40.375 33.015625 40.375 
z
M 52.59375 71.296875 
L 52.59375 62.3125 
Q 48.875 64.0625 45.09375 64.984375 
Q 41.3125 65.921875 37.59375 65.921875 
Q 27.828125 65.921875 22.671875 59.328125 
Q 17.53125 52.734375 16.796875 39.40625 
Q 19.671875 43.65625 24.015625 45.921875 
Q 28.375 48.1875 33.59375 48.1875 
Q 44.578125 48.1875 50.953125 41.515625 
Q 57.328125 34.859375 57.328125 23.390625 
Q 57.328125 12.15625 50.6875 5.359375 
Q 44.046875 -1.421875 33.015625 -1.421875 
Q 20.359375 -1.421875 13.671875 8.265625 
Q 6.984375 17.96875 6.984375 36.375 
Q 6.984375 53.65625 15.1875 63.9375 
Q 23.390625 74.21875 37.203125 74.21875 
Q 40.921875 74.21875 44.703125 73.484375 
Q 48.484375 72.75 52.59375 71.296875 
z
" id="DejaVuSans-54"/>
      </defs>
      <g transform="translate(471.929383 304.555938)scale(0.1 -0.1)">
       <use xlink:href="#DejaVuSans-57"/>
       <use x="63.623047" xlink:href="#DejaVuSans-49"/>
       <use x="127.246094" xlink:href="#DejaVuSans-54"/>
      </g>
     </g>
    </g>
    <g id="xtick_8">
     <g id="line2d_8">
      <g>
       <use style="stroke:#000000;stroke-width:0.8;" x="544.943444" xlink:href="#m215d816fca" y="289.9575"/>
      </g>
     </g>
     <g id="text_8">
      <!-- 917 -->
      <defs>
       <path d="M 8.203125 72.90625 
L 55.078125 72.90625 
L 55.078125 68.703125 
L 28.609375 0 
L 18.3125 0 
L 43.21875 64.59375 
L 8.203125 64.59375 
z
" id="DejaVuSans-55"/>
      </defs>
      <g transform="translate(535.399694 304.555938)scale(0.1 -0.1)">
       <use xlink:href="#DejaVuSans-57"/>
       <use x="63.623047" xlink:href="#DejaVuSans-49"/>
       <use x="127.246094" xlink:href="#DejaVuSans-55"/>
      </g>
     </g>
    </g>
    <g id="xtick_9">
     <g id="line2d_9">
      <g>
       <use style="stroke:#000000;stroke-width:0.8;" x="608.413755" xlink:href="#m215d816fca" y="289.9575"/>
      </g>
     </g>
     <g id="text_9">
      <!-- 918 -->
      <defs>
       <path d="M 31.78125 34.625 
Q 24.75 34.625 20.71875 30.859375 
Q 16.703125 27.09375 16.703125 20.515625 
Q 16.703125 13.921875 20.71875 10.15625 
Q 24.75 6.390625 31.78125 6.390625 
Q 38.8125 6.390625 42.859375 10.171875 
Q 46.921875 13.96875 46.921875 20.515625 
Q 46.921875 27.09375 42.890625 30.859375 
Q 38.875 34.625 31.78125 34.625 
z
M 21.921875 38.8125 
Q 15.578125 40.375 12.03125 44.71875 
Q 8.5 49.078125 8.5 55.328125 
Q 8.5 64.0625 14.71875 69.140625 
Q 20.953125 74.21875 31.78125 74.21875 
Q 42.671875 74.21875 48.875 69.140625 
Q 55.078125 64.0625 55.078125 55.328125 
Q 55.078125 49.078125 51.53125 44.71875 
Q 48 40.375 41.703125 38.8125 
Q 48.828125 37.15625 52.796875 32.3125 
Q 56.78125 27.484375 56.78125 20.515625 
Q 56.78125 9.90625 50.3125 4.234375 
Q 43.84375 -1.421875 31.78125 -1.421875 
Q 19.734375 -1.421875 13.25 4.234375 
Q 6.78125 9.90625 6.78125 20.515625 
Q 6.78125 27.484375 10.78125 32.3125 
Q 14.796875 37.15625 21.921875 38.8125 
z
M 18.3125 54.390625 
Q 18.3125 48.734375 21.84375 45.5625 
Q 25.390625 42.390625 31.78125 42.390625 
Q 38.140625 42.390625 41.71875 45.5625 
Q 45.3125 48.734375 45.3125 54.390625 
Q 45.3125 60.0625 41.71875 63.234375 
Q 38.140625 66.40625 31.78125 66.40625 
Q 25.390625 66.40625 21.84375 63.234375 
Q 18.3125 60.0625 18.3125 54.390625 
z
" id="DejaVuSans-56"/>
      </defs>
      <g transform="translate(598.870005 304.555938)scale(0.1 -0.1)">
       <use xlink:href="#DejaVuSans-57"/>
       <use x="63.623047" xlink:href="#DejaVuSans-49"/>
       <use x="127.246094" xlink:href="#DejaVuSans-56"/>
      </g>
     </g>
    </g>
    <g id="xtick_10">
     <g id="line2d_10">
      <g>
       <use style="stroke:#000000;stroke-width:0.8;" x="671.884067" xlink:href="#m215d816fca" y="289.9575"/>
      </g>
     </g>
     <g id="text_10">
      <!-- 919 -->
      <g transform="translate(662.340317 304.555938)scale(0.1 -0.1)">
       <use xlink:href="#DejaVuSans-57"/>
       <use x="63.623047" xlink:href="#DejaVuSans-49"/>
       <use x="127.246094" xlink:href="#DejaVuSans-57"/>
      </g>
     </g>
    </g>
    <g id="xtick_11">
     <g id="line2d_11">
      <g>
       <use style="stroke:#000000;stroke-width:0.8;" x="735.354378" xlink:href="#m215d816fca" y="289.9575"/>
      </g>
     </g>
     <g id="text_11">
      <!-- 920 -->
      <g transform="translate(725.810628 304.555938)scale(0.1 -0.1)">
       <use xlink:href="#DejaVuSans-57"/>
       <use x="63.623047" xlink:href="#DejaVuSans-50"/>
       <use x="127.246094" xlink:href="#DejaVuSans-48"/>
      </g>
     </g>
    </g>
    <g id="xtick_12">
     <g id="line2d_12">
      <g>
       <use style="stroke:#000000;stroke-width:0.8;" x="798.82469" xlink:href="#m215d816fca" y="289.9575"/>
      </g>
     </g>
     <g id="text_12">
      <!-- 921 -->
      <g transform="translate(789.28094 304.555938)scale(0.1 -0.1)">
       <use xlink:href="#DejaVuSans-57"/>
       <use x="63.623047" xlink:href="#DejaVuSans-50"/>
       <use x="127.246094" xlink:href="#DejaVuSans-49"/>
      </g>
     </g>
    </g>
    <g id="xtick_13">
     <g id="line2d_13">
      <g>
       <use style="stroke:#000000;stroke-width:0.8;" x="862.295001" xlink:href="#m215d816fca" y="289.9575"/>
      </g>
     </g>
     <g id="text_13">
      <!-- 922 -->
      <g transform="translate(852.751251 304.555938)scale(0.1 -0.1)">
       <use xlink:href="#DejaVuSans-57"/>
       <use x="63.623047" xlink:href="#DejaVuSans-50"/>
       <use x="127.246094" xlink:href="#DejaVuSans-50"/>
      </g>
     </g>
    </g>
    <g id="xtick_14">
     <g id="line2d_14">
      <g>
       <use style="stroke:#000000;stroke-width:0.8;" x="925.765312" xlink:href="#m215d816fca" y="289.9575"/>
      </g>
     </g>
     <g id="text_14">
      <!-- 923 -->
      <g transform="translate(916.221562 304.555938)scale(0.1 -0.1)">
       <use xlink:href="#DejaVuSans-57"/>
       <use x="63.623047" xlink:href="#DejaVuSans-50"/>
       <use x="127.246094" xlink:href="#DejaVuSans-51"/>
      </g>
     </g>
    </g>
    <g id="xtick_15">
     <g id="line2d_15">
      <g>
       <use style="stroke:#000000;stroke-width:0.8;" x="989.235624" xlink:href="#m215d816fca" y="289.9575"/>
      </g>
     </g>
     <g id="text_15">
      <!-- 924 -->
      <g transform="translate(979.691874 304.555938)scale(0.1 -0.1)">
       <use xlink:href="#DejaVuSans-57"/>
       <use x="63.623047" xlink:href="#DejaVuSans-50"/>
       <use x="127.246094" xlink:href="#DejaVuSans-52"/>
      </g>
     </g>
    </g>
    <g id="xtick_16">
     <g id="line2d_16">
      <g>
       <use style="stroke:#000000;stroke-width:0.8;" x="1052.705935" xlink:href="#m215d816fca" y="289.9575"/>
      </g>
     </g>
     <g id="text_16">
      <!-- 925 -->
      <g transform="translate(1043.162185 304.555938)scale(0.1 -0.1)">
       <use xlink:href="#DejaVuSans-57"/>
       <use x="63.623047" xlink:href="#DejaVuSans-50"/>
       <use x="127.246094" xlink:href="#DejaVuSans-53"/>
      </g>
     </g>
    </g>
    <g id="xtick_17">
     <g id="line2d_17">
      <g>
       <use style="stroke:#000000;stroke-width:0.8;" x="1116.176247" xlink:href="#m215d816fca" y="289.9575"/>
      </g>
     </g>
     <g id="text_17">
      <!-- 926 -->
      <g transform="translate(1106.632497 304.555938)scale(0.1 -0.1)">
       <use xlink:href="#DejaVuSans-57"/>
       <use x="63.623047" xlink:href="#DejaVuSans-50"/>
       <use x="127.246094" xlink:href="#DejaVuSans-54"/>
      </g>
     </g>
    </g>
    <g id="xtick_18">
     <g id="line2d_18">
      <g>
       <use style="stroke:#000000;stroke-width:0.8;" x="1179.646558" xlink:href="#m215d816fca" y="289.9575"/>
      </g>
     </g>
     <g id="text_18">
      <!-- 927 -->
      <g transform="translate(1170.102808 304.555938)scale(0.1 -0.1)">
       <use xlink:href="#DejaVuSans-57"/>
       <use x="63.623047" xlink:href="#DejaVuSans-50"/>
       <use x="127.246094" xlink:href="#DejaVuSans-55"/>
      </g>
     </g>
    </g>
    <g id="xtick_19">
     <g id="line2d_19">
      <g>
       <use style="stroke:#000000;stroke-width:0.8;" x="1243.116869" xlink:href="#m215d816fca" y="289.9575"/>
      </g>
     </g>
     <g id="text_19">
      <!-- 928 -->
      <g transform="translate(1233.573119 304.555938)scale(0.1 -0.1)">
       <use xlink:href="#DejaVuSans-57"/>
       <use x="63.623047" xlink:href="#DejaVuSans-50"/>
       <use x="127.246094" xlink:href="#DejaVuSans-56"/>
      </g>
     </g>
    </g>
    <g id="xtick_20">
     <g id="line2d_20">
      <g>
       <use style="stroke:#000000;stroke-width:0.8;" x="1306.587181" xlink:href="#m215d816fca" y="289.9575"/>
      </g>
     </g>
     <g id="text_20">
      <!-- 929 -->
      <g transform="translate(1297.043431 304.555938)scale(0.1 -0.1)">
       <use xlink:href="#DejaVuSans-57"/>
       <use x="63.623047" xlink:href="#DejaVuSans-50"/>
       <use x="127.246094" xlink:href="#DejaVuSans-57"/>
      </g>
     </g>
    </g>
    <g id="xtick_21">
     <g id="line2d_21">
      <g>
       <use style="stroke:#000000;stroke-width:0.8;" x="1370.057492" xlink:href="#m215d816fca" y="289.9575"/>
      </g>
     </g>
     <g id="text_21">
      <!-- 930 -->
      <g transform="translate(1360.513742 304.555938)scale(0.1 -0.1)">
       <use xlink:href="#DejaVuSans-57"/>
       <use x="63.623047" xlink:href="#DejaVuSans-51"/>
       <use x="127.246094" xlink:href="#DejaVuSans-48"/>
      </g>
     </g>
    </g>
    <g id="xtick_22">
     <g id="line2d_22">
      <g>
       <use style="stroke:#000000;stroke-width:0.8;" x="1433.527804" xlink:href="#m215d816fca" y="289.9575"/>
      </g>
     </g>
     <g id="text_22">
      <!-- 931 -->
      <g transform="translate(1423.984054 304.555938)scale(0.1 -0.1)">
       <use xlink:href="#DejaVuSans-57"/>
       <use x="63.623047" xlink:href="#DejaVuSans-51"/>
       <use x="127.246094" xlink:href="#DejaVuSans-49"/>
      </g>
     </g>
    </g>
    <g id="text_23">
     <!-- Time (s) -->
     <defs>
      <path d="M -0.296875 72.90625 
L 61.375 72.90625 
L 61.375 64.59375 
L 35.5 64.59375 
L 35.5 0 
L 25.59375 0 
L 25.59375 64.59375 
L -0.296875 64.59375 
z
" id="DejaVuSans-84"/>
      <path d="M 9.421875 54.6875 
L 18.40625 54.6875 
L 18.40625 0 
L 9.421875 0 
z
M 9.421875 75.984375 
L 18.40625 75.984375 
L 18.40625 64.59375 
L 9.421875 64.59375 
z
" id="DejaVuSans-105"/>
      <path d="M 52 44.1875 
Q 55.375 50.25 60.0625 53.125 
Q 64.75 56 71.09375 56 
Q 79.640625 56 84.28125 50.015625 
Q 88.921875 44.046875 88.921875 33.015625 
L 88.921875 0 
L 79.890625 0 
L 79.890625 32.71875 
Q 79.890625 40.578125 77.09375 44.375 
Q 74.3125 48.1875 68.609375 48.1875 
Q 61.625 48.1875 57.5625 43.546875 
Q 53.515625 38.921875 53.515625 30.90625 
L 53.515625 0 
L 44.484375 0 
L 44.484375 32.71875 
Q 44.484375 40.625 41.703125 44.40625 
Q 38.921875 48.1875 33.109375 48.1875 
Q 26.21875 48.1875 22.15625 43.53125 
Q 18.109375 38.875 18.109375 30.90625 
L 18.109375 0 
L 9.078125 0 
L 9.078125 54.6875 
L 18.109375 54.6875 
L 18.109375 46.1875 
Q 21.1875 51.21875 25.484375 53.609375 
Q 29.78125 56 35.6875 56 
Q 41.65625 56 45.828125 52.96875 
Q 50 49.953125 52 44.1875 
z
" id="DejaVuSans-109"/>
      <path d="M 56.203125 29.59375 
L 56.203125 25.203125 
L 14.890625 25.203125 
Q 15.484375 15.921875 20.484375 11.0625 
Q 25.484375 6.203125 34.421875 6.203125 
Q 39.59375 6.203125 44.453125 7.46875 
Q 49.3125 8.734375 54.109375 11.28125 
L 54.109375 2.78125 
Q 49.265625 0.734375 44.1875 -0.34375 
Q 39.109375 -1.421875 33.890625 -1.421875 
Q 20.796875 -1.421875 13.15625 6.1875 
Q 5.515625 13.8125 5.515625 26.8125 
Q 5.515625 40.234375 12.765625 48.109375 
Q 20.015625 56 32.328125 56 
Q 43.359375 56 49.78125 48.890625 
Q 56.203125 41.796875 56.203125 29.59375 
z
M 47.21875 32.234375 
Q 47.125 39.59375 43.09375 43.984375 
Q 39.0625 48.390625 32.421875 48.390625 
Q 24.90625 48.390625 20.390625 44.140625 
Q 15.875 39.890625 15.1875 32.171875 
z
" id="DejaVuSans-101"/>
      <path id="DejaVuSans-32"/>
      <path d="M 31 75.875 
Q 24.46875 64.65625 21.28125 53.65625 
Q 18.109375 42.671875 18.109375 31.390625 
Q 18.109375 20.125 21.3125 9.0625 
Q 24.515625 -2 31 -13.1875 
L 23.1875 -13.1875 
Q 15.875 -1.703125 12.234375 9.375 
Q 8.59375 20.453125 8.59375 31.390625 
Q 8.59375 42.28125 12.203125 53.3125 
Q 15.828125 64.359375 23.1875 75.875 
z
" id="DejaVuSans-40"/>
      <path d="M 44.28125 53.078125 
L 44.28125 44.578125 
Q 40.484375 46.53125 36.375 47.5 
Q 32.28125 48.484375 27.875 48.484375 
Q 21.1875 48.484375 17.84375 46.4375 
Q 14.5 44.390625 14.5 40.28125 
Q 14.5 37.15625 16.890625 35.375 
Q 19.28125 33.59375 26.515625 31.984375 
L 29.59375 31.296875 
Q 39.15625 29.25 43.1875 25.515625 
Q 47.21875 21.78125 47.21875 15.09375 
Q 47.21875 7.46875 41.1875 3.015625 
Q 35.15625 -1.421875 24.609375 -1.421875 
Q 20.21875 -1.421875 15.453125 -0.5625 
Q 10.6875 0.296875 5.421875 2 
L 5.421875 11.28125 
Q 10.40625 8.6875 15.234375 7.390625 
Q 20.0625 6.109375 24.8125 6.109375 
Q 31.15625 6.109375 34.5625 8.28125 
Q 37.984375 10.453125 37.984375 14.40625 
Q 37.984375 18.0625 35.515625 20.015625 
Q 33.0625 21.96875 24.703125 23.78125 
L 21.578125 24.515625 
Q 13.234375 26.265625 9.515625 29.90625 
Q 5.8125 33.546875 5.8125 39.890625 
Q 5.8125 47.609375 11.28125 51.796875 
Q 16.75 56 26.8125 56 
Q 31.78125 56 36.171875 55.265625 
Q 40.578125 54.546875 44.28125 53.078125 
z
" id="DejaVuSans-115"/>
      <path d="M 8.015625 75.875 
L 15.828125 75.875 
Q 23.140625 64.359375 26.78125 53.3125 
Q 30.421875 42.28125 30.421875 31.390625 
Q 30.421875 20.453125 26.78125 9.375 
Q 23.140625 -1.703125 15.828125 -13.1875 
L 8.015625 -13.1875 
Q 14.5 -2 17.703125 9.0625 
Q 20.90625 20.125 20.90625 31.390625 
Q 20.90625 42.671875 17.703125 53.65625 
Q 14.5 64.65625 8.015625 75.875 
z
" id="DejaVuSans-41"/>
     </defs>
     <g transform="translate(708.115625 321.273438)scale(0.14 -0.14)">
      <use xlink:href="#DejaVuSans-84"/>
      <use x="61.037109" xlink:href="#DejaVuSans-105"/>
      <use x="88.820312" xlink:href="#DejaVuSans-109"/>
      <use x="186.232422" xlink:href="#DejaVuSans-101"/>
      <use x="247.755859" xlink:href="#DejaVuSans-32"/>
      <use x="279.542969" xlink:href="#DejaVuSans-40"/>
      <use x="318.556641" xlink:href="#DejaVuSans-115"/>
      <use x="370.65625" xlink:href="#DejaVuSans-41"/>
     </g>
    </g>
   </g>
   <g id="matplotlib.axis_2">
    <g id="ytick_1">
     <g id="line2d_23">
      <defs>
       <path d="M 0 0 
L -3.5 0 
" id="m5d65b726f8" style="stroke:#000000;stroke-width:0.8;"/>
      </defs>
      <g>
       <use style="stroke:#000000;stroke-width:0.8;" x="39.291562" xlink:href="#m5d65b726f8" y="262.7775"/>
      </g>
     </g>
     <g id="text_24">
      <!-- −4 -->
      <defs>
       <path d="M 10.59375 35.5 
L 73.1875 35.5 
L 73.1875 27.203125 
L 10.59375 27.203125 
z
" id="DejaVuSans-8722"/>
      </defs>
      <g transform="translate(17.549375 266.576719)scale(0.1 -0.1)">
       <use xlink:href="#DejaVuSans-8722"/>
       <use x="83.789062" xlink:href="#DejaVuSans-52"/>
      </g>
     </g>
    </g>
    <g id="ytick_2">
     <g id="line2d_24">
      <g>
       <use style="stroke:#000000;stroke-width:0.8;" x="39.291562" xlink:href="#m5d65b726f8" y="208.4175"/>
      </g>
     </g>
     <g id="text_25">
      <!-- −2 -->
      <g transform="translate(17.549375 212.216719)scale(0.1 -0.1)">
       <use xlink:href="#DejaVuSans-8722"/>
       <use x="83.789062" xlink:href="#DejaVuSans-50"/>
      </g>
     </g>
    </g>
    <g id="ytick_3">
     <g id="line2d_25">
      <g>
       <use style="stroke:#000000;stroke-width:0.8;" x="39.291562" xlink:href="#m5d65b726f8" y="154.0575"/>
      </g>
     </g>
     <g id="text_26">
      <!-- 0 -->
      <g transform="translate(25.929062 157.856719)scale(0.1 -0.1)">
       <use xlink:href="#DejaVuSans-48"/>
      </g>
     </g>
    </g>
    <g id="ytick_4">
     <g id="line2d_26">
      <g>
       <use style="stroke:#000000;stroke-width:0.8;" x="39.291562" xlink:href="#m5d65b726f8" y="99.6975"/>
      </g>
     </g>
     <g id="text_27">
      <!-- 2 -->
      <g transform="translate(25.929062 103.496719)scale(0.1 -0.1)">
       <use xlink:href="#DejaVuSans-50"/>
      </g>
     </g>
    </g>
    <g id="ytick_5">
     <g id="line2d_27">
      <g>
       <use style="stroke:#000000;stroke-width:0.8;" x="39.291562" xlink:href="#m5d65b726f8" y="45.3375"/>
      </g>
     </g>
     <g id="text_28">
      <!-- 4 -->
      <g transform="translate(25.929062 49.136719)scale(0.1 -0.1)">
       <use xlink:href="#DejaVuSans-52"/>
      </g>
     </g>
    </g>
    <g id="text_29">
     <!-- Amplitude -->
     <defs>
      <path d="M 34.1875 63.1875 
L 20.796875 26.90625 
L 47.609375 26.90625 
z
M 28.609375 72.90625 
L 39.796875 72.90625 
L 67.578125 0 
L 57.328125 0 
L 50.6875 18.703125 
L 17.828125 18.703125 
L 11.1875 0 
L 0.78125 0 
z
" id="DejaVuSans-65"/>
      <path d="M 18.109375 8.203125 
L 18.109375 -20.796875 
L 9.078125 -20.796875 
L 9.078125 54.6875 
L 18.109375 54.6875 
L 18.109375 46.390625 
Q 20.953125 51.265625 25.265625 53.625 
Q 29.59375 56 35.59375 56 
Q 45.5625 56 51.78125 48.09375 
Q 58.015625 40.1875 58.015625 27.296875 
Q 58.015625 14.40625 51.78125 6.484375 
Q 45.5625 -1.421875 35.59375 -1.421875 
Q 29.59375 -1.421875 25.265625 0.953125 
Q 20.953125 3.328125 18.109375 8.203125 
z
M 48.6875 27.296875 
Q 48.6875 37.203125 44.609375 42.84375 
Q 40.53125 48.484375 33.40625 48.484375 
Q 26.265625 48.484375 22.1875 42.84375 
Q 18.109375 37.203125 18.109375 27.296875 
Q 18.109375 17.390625 22.1875 11.75 
Q 26.265625 6.109375 33.40625 6.109375 
Q 40.53125 6.109375 44.609375 11.75 
Q 48.6875 17.390625 48.6875 27.296875 
z
" id="DejaVuSans-112"/>
      <path d="M 9.421875 75.984375 
L 18.40625 75.984375 
L 18.40625 0 
L 9.421875 0 
z
" id="DejaVuSans-108"/>
      <path d="M 18.3125 70.21875 
L 18.3125 54.6875 
L 36.8125 54.6875 
L 36.8125 47.703125 
L 18.3125 47.703125 
L 18.3125 18.015625 
Q 18.3125 11.328125 20.140625 9.421875 
Q 21.96875 7.515625 27.59375 7.515625 
L 36.8125 7.515625 
L 36.8125 0 
L 27.59375 0 
Q 17.1875 0 13.234375 3.875 
Q 9.28125 7.765625 9.28125 18.015625 
L 9.28125 47.703125 
L 2.6875 47.703125 
L 2.6875 54.6875 
L 9.28125 54.6875 
L 9.28125 70.21875 
z
" id="DejaVuSans-116"/>
      <path d="M 8.5 21.578125 
L 8.5 54.6875 
L 17.484375 54.6875 
L 17.484375 21.921875 
Q 17.484375 14.15625 20.5 10.265625 
Q 23.53125 6.390625 29.59375 6.390625 
Q 36.859375 6.390625 41.078125 11.03125 
Q 45.3125 15.671875 45.3125 23.6875 
L 45.3125 54.6875 
L 54.296875 54.6875 
L 54.296875 0 
L 45.3125 0 
L 45.3125 8.40625 
Q 42.046875 3.421875 37.71875 1 
Q 33.40625 -1.421875 27.6875 -1.421875 
Q 18.265625 -1.421875 13.375 4.4375 
Q 8.5 10.296875 8.5 21.578125 
z
M 31.109375 56 
z
" id="DejaVuSans-117"/>
      <path d="M 45.40625 46.390625 
L 45.40625 75.984375 
L 54.390625 75.984375 
L 54.390625 0 
L 45.40625 0 
L 45.40625 8.203125 
Q 42.578125 3.328125 38.25 0.953125 
Q 33.9375 -1.421875 27.875 -1.421875 
Q 17.96875 -1.421875 11.734375 6.484375 
Q 5.515625 14.40625 5.515625 27.296875 
Q 5.515625 40.1875 11.734375 48.09375 
Q 17.96875 56 27.875 56 
Q 33.9375 56 38.25 53.625 
Q 42.578125 51.265625 45.40625 46.390625 
z
M 14.796875 27.296875 
Q 14.796875 17.390625 18.875 11.75 
Q 22.953125 6.109375 30.078125 6.109375 
Q 37.203125 6.109375 41.296875 11.75 
Q 45.40625 17.390625 45.40625 27.296875 
Q 45.40625 37.203125 41.296875 42.84375 
Q 37.203125 48.484375 30.078125 48.484375 
Q 22.953125 48.484375 18.875 42.84375 
Q 14.796875 37.203125 14.796875 27.296875 
z
" id="DejaVuSans-100"/>
     </defs>
     <g transform="translate(10.637812 189.929219)rotate(-90)scale(0.14 -0.14)">
      <use xlink:href="#DejaVuSans-65"/>
      <use x="68.408203" xlink:href="#DejaVuSans-109"/>
      <use x="165.820312" xlink:href="#DejaVuSans-112"/>
      <use x="229.296875" xlink:href="#DejaVuSans-108"/>
      <use x="257.080078" xlink:href="#DejaVuSans-105"/>
      <use x="284.863281" xlink:href="#DejaVuSans-116"/>
      <use x="324.072266" xlink:href="#DejaVuSans-117"/>
      <use x="387.451172" xlink:href="#DejaVuSans-100"/>
      <use x="450.927734" xlink:href="#DejaVuSans-101"/>
     </g>
    </g>
   </g>
   <g id="line2d_28">
    <path clip-path="url(#pf3c74527f5)" d="M 102.700653 152.836408 
L 103.970105 148.81771 
L 105.239556 155.28887 
L 106.509007 154.999473 
L 107.778458 144.839973 
L 109.04791 147.741041 
L 110.317361 169.081031 
L 111.586812 152.71998 
L 112.856264 139.748867 
L 114.125715 147.117213 
L 115.395166 161.019126 
L 116.664617 160.854237 
L 117.934069 146.652736 
L 119.20352 149.013085 
L 121.742422 165.183146 
L 123.011874 155.560635 
L 124.281325 142.632059 
L 126.820228 169.458324 
L 128.089679 128.766982 
L 129.35913 142.321 
L 130.628581 183.260379 
L 131.898033 177.372656 
L 133.167484 138.869263 
L 134.436935 140.514993 
L 135.706386 176.036599 
L 136.975838 168.031518 
L 138.245289 127.835564 
L 139.51474 125.781968 
L 140.784191 163.845257 
L 142.053643 157.380803 
L 143.323094 125.476551 
L 144.592545 162.391243 
L 145.861997 173.628795 
L 147.131448 169.406917 
L 148.400899 172.916326 
L 150.939802 137.252127 
L 152.209253 153.693096 
L 153.478704 157.628521 
L 154.748155 146.80019 
L 156.017607 159.483834 
L 157.287058 153.747349 
L 158.556509 138.969045 
L 159.825961 130.906653 
L 161.095412 142.699919 
L 162.364863 169.277417 
L 163.634314 172.808778 
L 164.903766 160.044399 
L 166.173217 155.225517 
L 167.442668 160.706727 
L 168.712119 159.439114 
L 171.251022 145.542991 
L 172.520473 146.569489 
L 173.789924 155.342607 
L 175.059376 156.534035 
L 176.328827 156.687419 
L 177.598278 153.368682 
L 178.86773 152.886171 
L 180.137181 159.34709 
L 181.406632 157.64703 
L 182.676083 143.581955 
L 183.945535 157.32599 
L 185.214986 159.808809 
L 186.484437 159.114271 
L 187.753888 148.808367 
L 189.02334 133.255828 
L 190.292791 143.251024 
L 191.562242 169.927762 
L 192.831694 147.693763 
L 194.101145 153.567062 
L 195.370596 161.337409 
L 196.640047 148.914277 
L 197.909499 157.142831 
L 199.17895 168.844273 
L 200.448401 154.320714 
L 201.717852 146.61771 
L 202.987304 161.96293 
L 204.256755 165.760592 
L 205.526206 152.278852 
L 206.795658 147.324882 
L 208.065109 154.126071 
L 209.33456 155.530095 
L 210.604011 145.973626 
L 211.873463 139.904972 
L 213.142914 158.324212 
L 214.412365 166.482643 
L 215.681816 144.977204 
L 216.951268 152.593175 
L 218.220719 171.219609 
L 219.49017 135.622069 
L 220.759621 139.001145 
L 222.029073 177.172883 
L 223.298524 155.102149 
L 224.567975 129.954588 
L 225.837427 150.108589 
L 227.106878 181.7841 
L 228.376329 165.876244 
L 229.64578 127.134082 
L 232.184683 173.40162 
L 233.454134 162.997713 
L 234.723585 150.151985 
L 235.993037 162.633446 
L 237.262488 172.043847 
L 239.801391 130.15795 
L 241.070842 144.101967 
L 242.340293 165.962005 
L 243.609744 147.472058 
L 244.879196 140.678795 
L 246.148647 157.562219 
L 247.418098 153.639399 
L 248.687549 124.563016 
L 249.957001 147.157846 
L 251.226452 187.576031 
L 252.495903 162.283006 
L 253.765354 149.102842 
L 255.034806 161.463705 
L 256.304257 166.103793 
L 257.573708 158.542643 
L 258.84316 163.538764 
L 260.112611 167.012937 
L 261.382062 138.371115 
L 262.651513 113.344349 
L 263.920965 161.137559 
L 265.190416 192.292625 
L 267.729318 131.016752 
L 268.99877 142.523027 
L 270.268221 138.506075 
L 271.537672 148.956104 
L 272.807124 148.932101 
L 274.076575 143.525902 
L 275.346026 168.202244 
L 276.615477 169.207476 
L 277.884929 147.336454 
L 279.15438 140.748953 
L 281.693282 174.08984 
L 282.962734 173.423153 
L 284.232185 170.629637 
L 285.501636 164.947232 
L 286.771087 138.071306 
L 288.040539 147.793345 
L 289.30999 160.305222 
L 290.579441 140.758719 
L 291.848893 133.031519 
L 293.118344 155.456687 
L 294.387795 156.068366 
L 295.657246 150.816023 
L 296.926698 181.436938 
L 298.196149 164.461686 
L 299.4656 99.697641 
L 300.735051 152.548144 
L 302.004503 189.019585 
L 303.273954 134.190467 
L 304.543405 102.2773 
L 305.812857 164.136645 
L 307.082308 175.864545 
L 308.351759 149.181157 
L 309.62121 154.505562 
L 310.890662 179.088441 
L 312.160113 174.038492 
L 313.429564 151.693992 
L 314.699015 144.508096 
L 315.968467 273.687833 
L 317.237918 176.550368 
L 318.507369 49.561587 
L 319.77682 98.806654 
L 321.046272 176.624679 
L 322.315723 167.545347 
L 323.585174 147.464329 
L 324.854626 148.525006 
L 326.124077 144.213646 
L 327.393528 128.820724 
L 328.662979 133.042351 
L 329.932431 130.88547 
L 331.201882 152.782707 
L 332.471333 172.676054 
L 333.740784 174.673619 
L 335.010236 177.14727 
L 336.279687 178.991135 
L 337.549138 165.551646 
L 338.81859 173.36698 
L 340.088041 168.972849 
L 341.357492 143.311743 
L 342.626943 136.009853 
L 343.896395 144.789987 
L 345.165846 151.913249 
L 346.435297 153.357872 
L 347.704748 141.415071 
L 348.9742 140.32366 
L 350.243651 154.01784 
L 351.513102 141.61804 
L 352.782553 149.221355 
L 354.052005 171.707994 
L 355.321456 159.555711 
L 356.590907 136.848225 
L 357.860359 146.920519 
L 359.12981 177.682667 
L 360.399261 178.092176 
L 361.668712 159.161044 
L 362.938164 153.783235 
L 364.207615 144.98916 
L 365.477066 123.413772 
L 366.746517 164.605133 
L 368.015969 166.249836 
L 369.28542 135.427218 
L 370.554871 129.504742 
L 371.824323 145.585779 
L 373.093774 190.297684 
L 374.363225 156.599161 
L 375.632676 174.299402 
L 376.902128 183.874747 
L 378.171579 157.442339 
L 379.44103 134.286427 
L 380.710481 126.41914 
L 381.979933 129.376932 
L 383.249384 162.116697 
L 384.518835 174.423218 
L 385.788286 139.505458 
L 387.057738 167.880935 
L 388.327189 152.367928 
L 389.59664 162.309099 
L 390.866092 164.675865 
L 392.135543 146.498253 
L 393.404994 138.653549 
L 394.674445 142.972298 
L 395.943897 148.062493 
L 397.213348 149.896387 
L 399.75225 154.895391 
L 401.021702 160.503745 
L 402.291153 158.634848 
L 403.560604 156.229834 
L 404.830056 166.298413 
L 406.099507 173.375252 
L 407.368958 167.347241 
L 408.638409 151.218118 
L 409.907861 140.416725 
L 411.177312 152.377284 
L 412.446763 174.329399 
L 413.716214 148.509574 
L 414.985666 142.449243 
L 416.255117 149.358282 
L 417.524568 138.803029 
L 418.79402 125.390724 
L 420.063471 139.440891 
L 421.332922 171.629634 
L 422.602373 156.835305 
L 423.871825 154.93189 
L 425.141276 171.160087 
L 426.410727 155.816089 
L 427.680178 127.118329 
L 428.94963 138.568392 
L 430.219081 175.475967 
L 431.488532 171.039361 
L 432.757983 140.996146 
L 434.027435 190.492846 
L 435.296886 213.000814 
L 436.566337 151.822396 
L 437.835789 131.555735 
L 439.10524 175.144455 
L 440.374691 127.078008 
L 441.644142 119.412189 
L 442.913594 147.09856 
L 444.183045 140.796948 
L 445.452496 124.948193 
L 446.721947 174.538195 
L 447.991399 177.366762 
L 449.26085 144.851249 
L 450.530301 129.147347 
L 451.799753 132.285792 
L 453.069204 148.786122 
L 454.338655 173.082004 
L 455.608106 167.837667 
L 456.877558 152.403939 
L 458.147009 161.977917 
L 459.41646 168.083415 
L 460.685911 147.433138 
L 461.955363 187.442978 
L 463.224814 180.824775 
L 464.494265 141.698753 
L 465.763716 151.489294 
L 467.033168 169.676729 
L 468.302619 152.93253 
L 469.57207 175.684347 
L 470.841522 153.370617 
L 472.110973 105.776545 
L 473.380424 118.137305 
L 474.649875 166.024391 
L 475.919327 162.899514 
L 477.188778 115.386376 
L 478.458229 129.060469 
L 479.72768 145.649332 
L 480.997132 151.466139 
L 483.536034 183.114011 
L 484.805486 163.916651 
L 486.074937 128.231892 
L 487.344388 134.279807 
L 488.613839 185.375135 
L 489.883291 192.269669 
L 491.152742 190.658051 
L 492.422193 179.248149 
L 493.691644 164.461182 
L 494.961096 154.161207 
L 497.499998 145.346083 
L 498.769449 128.585146 
L 500.038901 121.365323 
L 501.308352 132.123443 
L 502.577803 153.703639 
L 503.847255 163.052998 
L 506.386157 127.49835 
L 507.655608 136.07424 
L 508.92506 170.464465 
L 510.194511 172.848107 
L 511.463962 125.459381 
L 512.733413 124.570402 
L 514.002865 175.477368 
L 515.272316 204.397961 
L 517.811219 150.097281 
L 519.08067 150.408857 
L 520.350121 171.531659 
L 521.619572 182.724923 
L 522.889024 180.386618 
L 524.158475 152.316951 
L 525.427926 121.19619 
L 526.697377 123.53191 
L 527.966829 151.551631 
L 529.23628 164.505354 
L 530.505731 144.784361 
L 531.775182 148.763178 
L 533.044634 137.985669 
L 534.314085 124.090587 
L 535.583536 146.108935 
L 536.852988 142.661307 
L 538.122439 115.781922 
L 539.39189 176.693269 
L 540.661341 210.281302 
L 541.930793 181.846898 
L 543.200244 181.20989 
L 544.469695 164.845817 
L 545.739146 97.572396 
L 547.008598 123.161818 
L 548.278049 217.183308 
L 549.5475 194.433156 
L 550.816952 123.974613 
L 552.086403 137.458932 
L 553.355854 153.061511 
L 554.625305 140.691437 
L 555.894757 168.647448 
L 557.164208 159.238696 
L 558.433659 115.828754 
L 559.70311 135.657146 
L 560.972562 164.885862 
L 562.242013 169.224527 
L 563.511464 180.412252 
L 564.780915 144.201966 
L 566.050367 147.15058 
L 567.319818 153.815843 
L 568.589269 144.755872 
L 569.858721 142.964773 
L 571.128172 147.021611 
L 572.397623 154.95581 
L 573.667074 161.962589 
L 574.936526 127.243249 
L 576.205977 145.726047 
L 577.475428 211.284588 
L 578.744879 188.531665 
L 580.014331 115.847493 
L 581.283782 158.273827 
L 582.553233 188.865576 
L 583.822685 168.626705 
L 585.092136 151.76748 
L 586.361587 139.407026 
L 587.631038 142.71152 
L 588.90049 149.219535 
L 590.169941 124.701785 
L 591.439392 119.551469 
L 592.708843 128.334523 
L 593.978295 135.03392 
L 595.247746 191.46815 
L 596.517197 213.13807 
L 597.786648 163.932708 
L 599.0561 173.096977 
L 600.325551 148.676951 
L 601.595002 162.551336 
L 602.864454 133.653116 
L 604.133905 139.816416 
L 605.403356 148.904393 
L 606.672807 134.998493 
L 607.942259 129.323352 
L 609.21171 128.718978 
L 610.481161 175.689429 
L 611.750612 161.758475 
L 613.020064 168.346687 
L 614.289515 200.031259 
L 615.558966 146.555395 
L 616.828418 204.856362 
L 619.36732 138.763493 
L 620.636771 97.631349 
L 621.906223 89.882895 
L 623.175674 150.702575 
L 624.445125 191.998702 
L 625.714576 157.138175 
L 626.984028 131.899655 
L 628.253479 209.483526 
L 629.52293 261.179409 
L 630.792382 107.535794 
L 632.061833 27.066723 
L 633.331284 126.86921 
L 634.600735 206.313656 
L 635.870187 171.260969 
L 637.139638 172.058769 
L 638.409089 89.267753 
L 639.67854 112.8306 
L 640.947992 221.941876 
L 642.217443 226.660055 
L 643.486894 127.194976 
L 644.756345 118.838852 
L 646.025797 126.460014 
L 647.295248 152.966123 
L 648.564699 227.996489 
L 649.834151 220.804234 
L 651.103602 120.559655 
L 652.373053 84.104833 
L 653.642504 147.757197 
L 654.911956 193.989846 
L 656.181407 145.803617 
L 657.450858 138.706402 
L 658.720309 146.313311 
L 659.989761 152.061814 
L 661.259212 169.565763 
L 662.528663 149.916882 
L 663.798115 115.758568 
L 665.067566 121.27498 
L 666.337017 152.419305 
L 667.606468 197.712879 
L 668.87592 205.809709 
L 670.145371 139.872539 
L 671.414822 149.164418 
L 672.684273 164.362887 
L 673.953725 165.446105 
L 675.223176 160.307866 
L 676.492627 139.613264 
L 677.762078 116.442204 
L 679.03153 133.618046 
L 680.300981 153.979211 
L 681.570432 148.406485 
L 682.839884 173.08219 
L 684.109335 183.486899 
L 685.378786 164.95309 
L 686.648237 138.340715 
L 687.917689 140.754035 
L 689.18714 169.348488 
L 690.456591 167.374252 
L 691.726042 158.341827 
L 692.995494 150.563905 
L 694.264945 147.269227 
L 695.534396 149.094195 
L 696.803848 138.22668 
L 698.073299 150.311278 
L 699.34275 172.689586 
L 700.612201 161.661097 
L 701.881653 129.583966 
L 703.151104 155.788046 
L 704.420555 176.367132 
L 705.690006 161.715911 
L 706.959458 154.321644 
L 708.228909 181.76498 
L 710.767811 104.192967 
L 712.037263 111.759797 
L 713.306714 125.194272 
L 714.576165 128.491002 
L 715.845617 154.887233 
L 717.115068 192.257365 
L 718.384519 187.628774 
L 719.65397 173.85568 
L 720.923422 209.057193 
L 722.192873 206.727289 
L 723.462324 158.604796 
L 724.731775 148.669036 
L 726.001227 189.482918 
L 727.270678 88.270409 
L 728.540129 116.78075 
L 729.809581 197.704641 
L 731.079032 148.099417 
L 732.348483 73.901364 
L 733.617934 115.091869 
L 734.887386 125.613918 
L 736.156837 141.723536 
L 737.426288 153.763596 
L 738.695739 162.485317 
L 739.965191 190.272067 
L 741.234642 196.0946 
L 742.504093 147.552171 
L 743.773544 175.618067 
L 745.042996 175.06905 
L 746.312447 148.231618 
L 747.581898 173.820437 
L 748.85135 168.382308 
L 750.120801 142.441047 
L 751.390252 139.706185 
L 752.659703 150.819326 
L 753.929155 155.238543 
L 755.198606 156.978642 
L 756.468057 155.796852 
L 757.737508 149.671129 
L 759.00696 137.306949 
L 760.276411 133.976206 
L 761.545862 144.228555 
L 762.815314 133.858568 
L 764.084765 165.685243 
L 765.354216 190.135889 
L 767.893119 102.945631 
L 769.16257 164.073639 
L 770.432021 213.898935 
L 771.701472 171.420942 
L 772.970924 122.211686 
L 774.240375 158.047089 
L 775.509826 153.6046 
L 776.779277 129.626551 
L 778.048729 147.513912 
L 779.31818 185.997974 
L 781.857083 128.02274 
L 783.126534 163.20665 
L 784.395985 193.128843 
L 785.665436 167.769082 
L 786.934888 137.629166 
L 788.204339 136.393011 
L 789.47379 154.524763 
L 790.743241 151.29122 
L 792.012693 132.043475 
L 793.282144 149.780741 
L 794.551595 170.583561 
L 795.821047 142.640766 
L 797.090498 137.240493 
L 798.359949 160.780556 
L 799.6294 142.066941 
L 800.898852 164.470434 
L 802.168303 169.755403 
L 803.437754 165.794383 
L 804.707205 197.429301 
L 805.976657 163.539645 
L 807.246108 118.298972 
L 808.515559 164.902419 
L 809.78501 148.441398 
L 811.054462 104.123066 
L 812.323913 186.400557 
L 813.593364 129.476429 
L 814.862816 159.190191 
L 816.132267 159.956437 
L 817.401718 132.769795 
L 818.671169 163.436348 
L 819.940621 199.168419 
L 821.210072 114.562072 
L 822.479523 97.40155 
L 823.748974 154.009416 
L 825.018426 182.294347 
L 826.287877 181.550212 
L 827.557328 211.000231 
L 828.82678 150.226106 
L 830.096231 135.076965 
L 831.365682 189.887673 
L 832.635133 190.757983 
L 833.904585 108.772791 
L 835.174036 124.474559 
L 836.443487 188.811492 
L 837.712938 107.339348 
L 838.98239 78.372989 
L 840.251841 196.128282 
L 841.521292 133.761329 
L 842.790743 158.841212 
L 844.060195 166.596354 
L 845.329646 125.756789 
L 846.599097 141.661868 
L 847.868549 212.456414 
L 849.138 200.767464 
L 851.676902 135.875585 
L 852.946354 114.14666 
L 854.215805 133.473765 
L 855.485256 180.665997 
L 856.754707 186.658485 
L 858.024159 186.520122 
L 859.29361 160.955653 
L 860.563061 97.423942 
L 861.832513 99.894768 
L 863.101964 164.798987 
L 864.371415 194.359084 
L 865.640866 137.746884 
L 866.910318 118.436157 
L 868.179769 183.569743 
L 869.44922 173.717753 
L 870.718671 159.922257 
L 871.988123 161.272613 
L 873.257574 150.609843 
L 874.527025 132.538394 
L 875.796477 149.930655 
L 877.065928 175.379854 
L 878.335379 143.6848 
L 879.60483 134.386456 
L 880.874282 157.51652 
L 882.143733 121.745509 
L 883.413184 146.345037 
L 884.682635 195.742424 
L 885.952087 180.945055 
L 887.221538 161.854543 
L 888.490989 163.930119 
L 889.76044 154.177017 
L 891.029892 143.190496 
L 892.299343 155.284263 
L 893.568794 153.099139 
L 894.838246 143.381996 
L 896.107697 148.899129 
L 897.377148 131.533392 
L 898.646599 119.196949 
L 899.916051 174.466019 
L 901.185502 179.539317 
L 902.454953 147.954579 
L 903.724404 169.863731 
L 904.993856 161.268147 
L 906.263307 151.346345 
L 907.532758 155.939441 
L 908.80221 136.083516 
L 910.071661 148.754969 
L 911.341112 195.347695 
L 912.610563 179.636641 
L 913.880015 117.696798 
L 915.149466 110.050649 
L 916.418917 153.377402 
L 917.688368 161.475321 
L 918.95782 138.506081 
L 920.227271 155.685326 
L 921.496722 180.636556 
L 922.766173 191.105281 
L 924.035625 171.772513 
L 925.305076 125.424761 
L 926.574527 116.032128 
L 927.843979 173.455668 
L 929.11343 173.323776 
L 930.382881 149.562308 
L 931.652332 140.22192 
L 932.921784 138.925672 
L 934.191235 151.505457 
L 935.460686 129.900419 
L 936.730137 127.106383 
L 937.999589 183.017998 
L 939.26904 225.872193 
L 940.538491 185.639372 
L 941.807943 128.828615 
L 943.077394 99.349339 
L 944.346845 162.254646 
L 945.616296 249.778727 
L 946.885748 149.480652 
L 948.155199 33.789077 
L 949.42465 173.704501 
L 950.694101 174.246871 
L 951.963553 113.248809 
L 953.233004 125.400589 
L 954.502455 154.988797 
L 955.771906 306.554802 
L 957.041358 17.368624 
L 958.310809 202.522526 
L 959.58026 100.983839 
L 960.849712 48.280763 
L 962.119163 254.563775 
L 963.388614 299.286842 
L 964.658065 133.668768 
L 965.927517 246.588334 
L 967.091961 -1 
M 967.288178 -1 
L 968.466419 287.418965 
L 969.73587 172.088701 
L 970.658951 -1 
M 971.374643 -1 
L 972.274773 157.296308 
L 973.544224 216.874921 
L 974.813676 171.495554 
L 976.083127 154.429348 
L 977.352578 140.354515 
L 978.622029 132.07455 
L 979.891481 177.108002 
L 981.160932 171.878363 
L 982.430383 156.773087 
L 983.699834 158.174854 
L 984.969286 152.682923 
L 986.238737 129.819882 
L 987.508188 135.947834 
L 988.777639 161.931515 
L 990.047091 173.706546 
L 991.316542 160.046138 
L 992.585993 143.922646 
L 993.855445 150.660423 
L 995.124896 183.716979 
L 996.394347 193.834924 
L 997.663798 158.91629 
L 998.93325 128.65259 
L 1000.202701 142.798495 
L 1001.472152 164.212022 
L 1002.741603 149.921765 
L 1004.011055 121.562246 
L 1005.280506 132.021733 
L 1006.549957 150.245154 
L 1007.819409 164.034208 
L 1009.08886 160.112818 
L 1010.358311 142.792779 
L 1011.627762 140.356207 
L 1012.897214 148.742432 
L 1014.166665 147.461813 
L 1015.436116 170.967805 
L 1016.705567 203.289199 
L 1017.975019 170.106041 
L 1019.24447 157.031599 
L 1020.513921 153.810062 
L 1021.783372 140.464398 
L 1023.052824 142.28548 
L 1024.322275 164.516841 
L 1025.591726 150.561228 
L 1026.861178 161.64855 
L 1028.130629 169.216094 
L 1029.40008 139.421158 
L 1030.669531 133.231065 
L 1031.938983 143.507468 
L 1033.208434 130.852184 
L 1034.477885 128.88085 
L 1035.747336 152.70967 
L 1037.016788 153.680505 
L 1038.286239 161.731695 
L 1039.55569 179.170742 
L 1040.825142 199.959955 
L 1042.094593 201.69904 
L 1043.364044 142.08057 
L 1044.633495 113.052811 
L 1045.902947 164.4359 
L 1047.172398 140.096966 
L 1048.441849 156.818013 
L 1049.7113 153.844446 
L 1050.980752 137.910155 
L 1052.250203 131.155703 
L 1053.519654 164.955631 
L 1054.789105 164.598983 
L 1056.058557 140.639255 
L 1057.328008 148.850151 
L 1058.597459 168.671241 
L 1059.866911 184.406835 
L 1061.136362 156.338786 
L 1062.405813 121.10595 
L 1063.675264 129.804282 
L 1064.944716 154.574968 
L 1066.214167 163.782152 
L 1067.483618 182.025114 
L 1068.753069 133.939957 
L 1070.022521 119.9482 
L 1071.291972 171.438232 
L 1072.561423 201.911463 
L 1073.830875 168.93832 
L 1075.100326 146.524472 
L 1076.369777 156.40416 
L 1077.639228 186.83186 
L 1078.90868 182.725097 
L 1080.178131 142.187086 
L 1081.447582 136.467992 
L 1082.717033 138.904108 
L 1083.986485 105.784791 
L 1085.255936 80.809677 
L 1086.525387 122.268545 
L 1087.794839 176.920139 
L 1089.06429 139.064951 
L 1090.333741 143.571304 
L 1091.603192 184.032332 
L 1092.872644 168.715106 
L 1094.142095 161.226744 
L 1095.411546 209.426176 
L 1096.680997 248.243265 
L 1097.950449 223.819606 
L 1099.2199 160.049531 
L 1100.489351 123.816663 
L 1101.758802 135.5009 
L 1103.028254 125.372096 
L 1104.297705 85.659693 
L 1105.567156 110.976158 
L 1106.836608 149.887232 
L 1108.106059 117.619028 
L 1109.37551 99.147574 
L 1110.644961 141.278613 
L 1111.914413 162.701018 
L 1113.183864 166.723463 
L 1114.453315 195.002204 
L 1115.722766 203.23663 
L 1116.992218 191.923683 
L 1118.261669 191.797132 
L 1119.53112 197.386329 
L 1120.800572 176.934641 
L 1122.070023 147.995261 
L 1123.339474 122.19043 
L 1124.608925 78.1867 
L 1125.878377 90.182194 
L 1127.147828 173.249577 
L 1128.417279 164.23085 
L 1129.68673 142.747857 
L 1130.956182 180.24062 
L 1132.225633 193.617637 
L 1133.495084 126.105491 
L 1134.764535 126.720719 
L 1136.033987 169.079883 
L 1137.303438 149.90993 
L 1138.572889 117.180243 
L 1139.842341 159.639405 
L 1141.111792 192.431834 
L 1142.381243 190.578935 
L 1143.650694 174.880304 
L 1144.920146 157.775467 
L 1146.189597 147.042232 
L 1147.459048 152.649677 
L 1148.728499 134.503497 
L 1149.997951 120.060974 
L 1151.267402 138.27248 
L 1152.536853 164.018506 
L 1153.806305 152.698429 
L 1155.075756 139.921368 
L 1156.345207 153.319612 
L 1157.614658 172.554232 
L 1158.88411 155.021976 
L 1160.153561 163.159317 
L 1161.423012 160.614982 
L 1162.692463 153.307539 
L 1163.961915 151.412234 
L 1165.231366 147.891334 
L 1166.500817 149.726702 
L 1167.770268 175.926144 
L 1169.03972 175.842441 
L 1170.309171 148.196648 
L 1171.578622 140.010231 
L 1172.848074 167.629766 
L 1174.117525 169.849453 
L 1175.386976 132.326116 
L 1176.656427 142.629027 
L 1177.925879 149.615393 
L 1179.19533 136.986606 
L 1180.464781 139.855601 
L 1181.734232 155.76425 
L 1183.003684 133.018468 
L 1184.273135 153.099188 
L 1185.542586 168.298787 
L 1186.812038 168.243706 
L 1188.081489 170.878577 
L 1189.35094 166.993521 
L 1190.620391 153.191625 
L 1191.889843 163.062293 
L 1193.159294 165.235306 
L 1194.428745 160.667748 
L 1195.698196 154.089839 
L 1196.967648 135.39082 
L 1198.237099 119.37395 
L 1199.50655 145.175242 
L 1200.776001 163.744707 
L 1202.045453 164.087511 
L 1203.314904 173.409815 
L 1204.584355 147.316302 
L 1205.853807 147.146925 
L 1207.123258 148.169073 
L 1208.392709 157.177703 
L 1209.66216 171.849493 
L 1210.931612 163.797643 
L 1212.201063 133.802383 
L 1213.470514 142.168319 
L 1214.739965 157.811289 
L 1216.009417 150.534048 
L 1217.278868 132.913385 
L 1218.548319 139.024374 
L 1219.817771 163.990173 
L 1221.087222 172.003349 
L 1222.356673 165.396357 
L 1223.626124 167.489803 
L 1224.895576 171.282168 
L 1227.434478 139.288326 
L 1228.703929 157.515768 
L 1229.973381 163.397365 
L 1231.242832 151.011943 
L 1232.512283 149.827122 
L 1233.781734 146.305075 
L 1235.051186 138.057325 
L 1236.320637 156.825825 
L 1237.590088 150.489889 
L 1238.85954 126.454261 
L 1240.128991 137.626626 
L 1241.398442 180.500613 
L 1242.667893 174.121514 
L 1243.937345 178.399574 
L 1245.206796 159.937812 
L 1246.476247 128.210654 
L 1247.745698 128.509323 
L 1250.284601 177.711132 
L 1251.554052 188.695161 
L 1252.823504 168.943937 
L 1254.092955 137.425751 
L 1255.362406 131.793284 
L 1256.631857 128.776056 
L 1257.901309 127.749136 
L 1260.440211 182.226663 
L 1261.709662 164.136236 
L 1262.979114 174.881385 
L 1264.248565 171.161407 
L 1265.518016 136.901371 
L 1266.787467 126.303852 
L 1268.056919 155.701793 
L 1269.32637 178.243867 
L 1270.595821 157.085162 
L 1271.865273 134.042577 
L 1273.134724 162.597956 
L 1274.404175 165.345094 
L 1275.673626 134.268823 
L 1276.943078 159.148762 
L 1278.212529 153.951966 
L 1279.48198 113.628021 
L 1280.751431 138.088015 
L 1282.020883 178.991074 
L 1283.290334 162.79525 
L 1284.559785 152.792221 
L 1285.829237 199.896418 
L 1287.098688 158.108952 
L 1288.368139 109.241952 
L 1289.63759 135.389574 
L 1290.907042 183.795658 
L 1292.176493 174.433497 
L 1293.445944 167.354119 
L 1294.715395 201.287629 
L 1295.984847 146.81543 
L 1297.254298 119.514112 
L 1298.523749 142.161779 
L 1299.793201 127.268661 
L 1301.062652 143.253814 
L 1302.332103 164.435967 
L 1303.601554 149.027987 
L 1304.871006 131.550739 
L 1306.140457 118.523832 
L 1308.679359 170.211687 
L 1309.948811 167.51698 
L 1311.218262 171.825664 
L 1312.487713 180.439078 
L 1313.757164 174.993235 
L 1315.026616 169.015473 
L 1316.296067 165.36084 
L 1317.565518 154.630688 
L 1318.83497 159.369874 
L 1320.104421 157.799973 
L 1321.373872 151.228481 
L 1322.643323 151.362658 
L 1323.912775 144.023862 
L 1325.182226 118.057324 
L 1326.451677 127.362629 
L 1327.721128 135.184576 
L 1328.99058 154.667987 
L 1330.260031 158.472476 
L 1331.529482 151.228911 
L 1332.798934 159.826168 
L 1334.068385 167.122354 
L 1335.337836 164.100971 
L 1336.607287 158.179529 
L 1337.876739 162.949852 
L 1339.14619 156.697542 
L 1340.415641 153.58043 
L 1341.685092 172.399178 
L 1342.954544 161.652678 
L 1344.223995 142.729975 
L 1345.493446 147.0885 
L 1346.762897 148.298049 
L 1348.032349 141.248028 
L 1349.3018 152.779198 
L 1350.571251 178.60972 
L 1351.840703 166.897295 
L 1353.110154 145.880393 
L 1355.649056 150.713437 
L 1356.918508 137.019842 
L 1358.187959 146.246831 
L 1359.45741 164.785989 
L 1360.726861 158.269138 
L 1361.996313 143.380835 
L 1363.265764 145.472599 
L 1364.535215 159.228928 
L 1365.804667 152.348415 
L 1367.074118 142.065173 
L 1368.343569 172.459362 
L 1369.61302 171.25138 
L 1370.882472 147.673325 
L 1370.882472 147.673325 
" style="fill:none;stroke:#1f77b4;stroke-linecap:square;stroke-width:1.5;"/>
   </g>
   <g id="line2d_29">
    <path clip-path="url(#pf3c74527f5)" d="M 293.118344 155.456687 
L 294.387795 156.068366 
L 295.657246 150.816023 
L 296.926698 181.436938 
L 298.196149 164.461686 
L 299.4656 99.697641 
L 300.735051 152.548144 
L 302.004503 189.019585 
L 303.273954 134.190467 
L 304.543405 102.2773 
L 305.812857 164.136645 
L 307.082308 175.864545 
L 308.351759 149.181157 
L 309.62121 154.505562 
L 310.890662 179.088441 
L 312.160113 174.038492 
L 313.429564 151.693992 
L 314.699015 144.508096 
L 315.968467 273.687833 
L 317.237918 176.550368 
L 318.507369 49.561587 
L 319.77682 98.806654 
L 321.046272 176.624679 
L 322.315723 167.545347 
L 323.585174 147.464329 
" style="fill:none;stroke:#ff4500;stroke-linecap:square;stroke-width:1.5;"/>
   </g>
   <g id="line2d_30">
    <path clip-path="url(#pf3c74527f5)" d="M 610.481161 175.689429 
L 611.750612 161.758475 
L 613.020064 168.346687 
L 614.289515 200.031259 
L 615.558966 146.555395 
L 616.828418 204.856362 
L 618.097869 172.823793 
L 619.36732 138.763493 
L 620.636771 97.631349 
L 621.906223 89.882895 
L 623.175674 150.702575 
L 624.445125 191.998702 
L 625.714576 157.138175 
L 626.984028 131.899655 
L 628.253479 209.483526 
L 629.52293 261.179409 
L 630.792382 107.535794 
L 632.061833 27.066723 
L 633.331284 126.86921 
L 634.600735 206.313656 
L 635.870187 171.260969 
L 637.139638 172.058769 
L 638.409089 89.267753 
L 639.67854 112.8306 
L 640.947992 221.941876 
L 642.217443 226.660055 
L 643.486894 127.194976 
L 644.756345 118.838852 
L 646.025797 126.460014 
L 647.295248 152.966123 
L 648.564699 227.996489 
L 649.834151 220.804234 
L 651.103602 120.559655 
L 652.373053 84.104833 
L 653.642504 147.757197 
L 654.911956 193.989846 
L 656.181407 145.803617 
L 657.450858 138.706402 
L 658.720309 146.313311 
L 659.989761 152.061814 
" style="fill:none;stroke:#ff4500;stroke-linecap:square;stroke-width:1.5;"/>
   </g>
   <g id="line2d_31">
    <path clip-path="url(#pf3c74527f5)" d="M 927.843979 173.455668 
L 929.11343 173.323776 
L 930.382881 149.562308 
L 931.652332 140.22192 
L 932.921784 138.925672 
L 934.191235 151.505457 
L 935.460686 129.900419 
L 936.730137 127.106383 
L 937.999589 183.017998 
L 939.26904 225.872193 
L 940.538491 185.639372 
L 941.807943 128.828615 
L 943.077394 99.349339 
L 944.346845 162.254646 
L 945.616296 249.778727 
L 946.885748 149.480652 
L 948.155199 33.789077 
L 949.42465 173.704501 
L 950.694101 174.246871 
L 951.963553 113.248809 
L 953.233004 125.400589 
L 954.502455 154.988797 
L 955.771906 306.554802 
L 957.041358 17.368624 
L 958.310809 202.522526 
L 959.58026 100.983839 
L 960.849712 48.280763 
L 962.119163 254.563775 
L 963.388614 299.286842 
L 964.658065 133.668768 
L 965.927517 246.588334 
L 967.091961 -1 
M 967.288178 -1 
L 968.466419 287.418965 
L 969.73587 172.088701 
L 970.658951 -1 
M 971.374643 -1 
L 972.274773 157.296308 
L 973.544224 216.874921 
L 974.813676 171.495554 
L 976.083127 154.429348 
L 977.352578 140.354515 
L 978.622029 132.07455 
L 979.891481 177.108002 
L 981.160932 171.878363 
L 982.430383 156.773087 
L 983.699834 158.174854 
L 984.969286 152.682923 
L 986.238737 129.819882 
L 987.508188 135.947834 
L 988.777639 161.931515 
L 990.047091 173.706546 
" style="fill:none;stroke:#ff4500;stroke-linecap:square;stroke-width:1.5;"/>
   </g>
   <g id="line2d_32">
    <path clip-path="url(#pf3c74527f5)" d="M 1080.178131 142.187086 
L 1081.447582 136.467992 
L 1082.717033 138.904108 
L 1083.986485 105.784791 
L 1085.255936 80.809677 
L 1086.525387 122.268545 
L 1087.794839 176.920139 
L 1089.06429 139.064951 
L 1090.333741 143.571304 
L 1091.603192 184.032332 
L 1092.872644 168.715106 
L 1094.142095 161.226744 
L 1095.411546 209.426176 
L 1096.680997 248.243265 
L 1097.950449 223.819606 
L 1099.2199 160.049531 
L 1100.489351 123.816663 
L 1101.758802 135.5009 
L 1103.028254 125.372096 
L 1104.297705 85.659693 
L 1105.567156 110.976158 
L 1106.836608 149.887232 
L 1108.106059 117.619028 
L 1109.37551 99.147574 
L 1110.644961 141.278613 
L 1111.914413 162.701018 
L 1113.183864 166.723463 
L 1114.453315 195.002204 
L 1115.722766 203.23663 
L 1116.992218 191.923683 
L 1118.261669 191.797132 
L 1119.53112 197.386329 
L 1120.800572 176.934641 
L 1122.070023 147.995261 
L 1123.339474 122.19043 
L 1124.608925 78.1867 
L 1125.878377 90.182194 
L 1127.147828 173.249577 
L 1128.417279 164.23085 
L 1129.68673 142.747857 
L 1130.956182 180.24062 
L 1132.225633 193.617637 
L 1133.495084 126.105491 
L 1134.764535 126.720719 
L 1136.033987 169.079883 
L 1137.303438 149.90993 
L 1138.572889 117.180243 
L 1139.842341 159.639405 
L 1141.111792 192.431834 
L 1142.381243 190.578935 
" style="fill:none;stroke:#ff4500;stroke-linecap:square;stroke-width:1.5;"/>
   </g>
   <g id="line2d_33"/>
   <g id="patch_3">
    <path d="M 39.291562 289.9575 
L 39.291562 18.1575 
" style="fill:none;stroke:#000000;stroke-linecap:square;stroke-linejoin:miter;stroke-width:0.8;"/>
   </g>
   <g id="patch_4">
    <path d="M 1434.291563 289.9575 
L 1434.291563 18.1575 
" style="fill:none;stroke:#000000;stroke-linecap:square;stroke-linejoin:miter;stroke-width:0.8;"/>
   </g>
   <g id="patch_5">
    <path d="M 39.291563 289.9575 
L 1434.291563 289.9575 
" style="fill:none;stroke:#000000;stroke-linecap:square;stroke-linejoin:miter;stroke-width:0.8;"/>
   </g>
   <g id="patch_6">
    <path d="M 39.291563 18.1575 
L 1434.291563 18.1575 
" style="fill:none;stroke:#000000;stroke-linecap:square;stroke-linejoin:miter;stroke-width:0.8;"/>
   </g>
   <g id="text_30">
    <!-- AccelerationZ -->
    <defs>
     <path d="M 48.78125 52.59375 
L 48.78125 44.1875 
Q 44.96875 46.296875 41.140625 47.34375 
Q 37.3125 48.390625 33.40625 48.390625 
Q 24.65625 48.390625 19.8125 42.84375 
Q 14.984375 37.3125 14.984375 27.296875 
Q 14.984375 17.28125 19.8125 11.734375 
Q 24.65625 6.203125 33.40625 6.203125 
Q 37.3125 6.203125 41.140625 7.25 
Q 44.96875 8.296875 48.78125 10.40625 
L 48.78125 2.09375 
Q 45.015625 0.34375 40.984375 -0.53125 
Q 36.96875 -1.421875 32.421875 -1.421875 
Q 20.0625 -1.421875 12.78125 6.34375 
Q 5.515625 14.109375 5.515625 27.296875 
Q 5.515625 40.671875 12.859375 48.328125 
Q 20.21875 56 33.015625 56 
Q 37.15625 56 41.109375 55.140625 
Q 45.0625 54.296875 48.78125 52.59375 
z
" id="DejaVuSans-99"/>
     <path d="M 41.109375 46.296875 
Q 39.59375 47.171875 37.8125 47.578125 
Q 36.03125 48 33.890625 48 
Q 26.265625 48 22.1875 43.046875 
Q 18.109375 38.09375 18.109375 28.8125 
L 18.109375 0 
L 9.078125 0 
L 9.078125 54.6875 
L 18.109375 54.6875 
L 18.109375 46.1875 
Q 20.953125 51.171875 25.484375 53.578125 
Q 30.03125 56 36.53125 56 
Q 37.453125 56 38.578125 55.875 
Q 39.703125 55.765625 41.0625 55.515625 
z
" id="DejaVuSans-114"/>
     <path d="M 34.28125 27.484375 
Q 23.390625 27.484375 19.1875 25 
Q 14.984375 22.515625 14.984375 16.5 
Q 14.984375 11.71875 18.140625 8.90625 
Q 21.296875 6.109375 26.703125 6.109375 
Q 34.1875 6.109375 38.703125 11.40625 
Q 43.21875 16.703125 43.21875 25.484375 
L 43.21875 27.484375 
z
M 52.203125 31.203125 
L 52.203125 0 
L 43.21875 0 
L 43.21875 8.296875 
Q 40.140625 3.328125 35.546875 0.953125 
Q 30.953125 -1.421875 24.3125 -1.421875 
Q 15.921875 -1.421875 10.953125 3.296875 
Q 6 8.015625 6 15.921875 
Q 6 25.140625 12.171875 29.828125 
Q 18.359375 34.515625 30.609375 34.515625 
L 43.21875 34.515625 
L 43.21875 35.40625 
Q 43.21875 41.609375 39.140625 45 
Q 35.0625 48.390625 27.6875 48.390625 
Q 23 48.390625 18.546875 47.265625 
Q 14.109375 46.140625 10.015625 43.890625 
L 10.015625 52.203125 
Q 14.9375 54.109375 19.578125 55.046875 
Q 24.21875 56 28.609375 56 
Q 40.484375 56 46.34375 49.84375 
Q 52.203125 43.703125 52.203125 31.203125 
z
" id="DejaVuSans-97"/>
     <path d="M 30.609375 48.390625 
Q 23.390625 48.390625 19.1875 42.75 
Q 14.984375 37.109375 14.984375 27.296875 
Q 14.984375 17.484375 19.15625 11.84375 
Q 23.34375 6.203125 30.609375 6.203125 
Q 37.796875 6.203125 41.984375 11.859375 
Q 46.1875 17.53125 46.1875 27.296875 
Q 46.1875 37.015625 41.984375 42.703125 
Q 37.796875 48.390625 30.609375 48.390625 
z
M 30.609375 56 
Q 42.328125 56 49.015625 48.375 
Q 55.71875 40.765625 55.71875 27.296875 
Q 55.71875 13.875 49.015625 6.21875 
Q 42.328125 -1.421875 30.609375 -1.421875 
Q 18.84375 -1.421875 12.171875 6.21875 
Q 5.515625 13.875 5.515625 27.296875 
Q 5.515625 40.765625 12.171875 48.375 
Q 18.84375 56 30.609375 56 
z
" id="DejaVuSans-111"/>
     <path d="M 54.890625 33.015625 
L 54.890625 0 
L 45.90625 0 
L 45.90625 32.71875 
Q 45.90625 40.484375 42.875 44.328125 
Q 39.84375 48.1875 33.796875 48.1875 
Q 26.515625 48.1875 22.3125 43.546875 
Q 18.109375 38.921875 18.109375 30.90625 
L 18.109375 0 
L 9.078125 0 
L 9.078125 54.6875 
L 18.109375 54.6875 
L 18.109375 46.1875 
Q 21.34375 51.125 25.703125 53.5625 
Q 30.078125 56 35.796875 56 
Q 45.21875 56 50.046875 50.171875 
Q 54.890625 44.34375 54.890625 33.015625 
z
" id="DejaVuSans-110"/>
     <path d="M 5.609375 72.90625 
L 62.890625 72.90625 
L 62.890625 65.375 
L 16.796875 8.296875 
L 64.015625 8.296875 
L 64.015625 0 
L 4.5 0 
L 4.5 7.515625 
L 50.59375 64.59375 
L 5.609375 64.59375 
z
" id="DejaVuSans-90"/>
    </defs>
    <g transform="translate(681.460313 12.1575)scale(0.16 -0.16)">
     <use xlink:href="#DejaVuSans-65"/>
     <use x="68.392578" xlink:href="#DejaVuSans-99"/>
     <use x="123.373047" xlink:href="#DejaVuSans-99"/>
     <use x="178.353516" xlink:href="#DejaVuSans-101"/>
     <use x="239.876953" xlink:href="#DejaVuSans-108"/>
     <use x="267.660156" xlink:href="#DejaVuSans-101"/>
     <use x="329.183594" xlink:href="#DejaVuSans-114"/>
     <use x="370.296875" xlink:href="#DejaVuSans-97"/>
     <use x="431.576172" xlink:href="#DejaVuSans-116"/>
     <use x="470.785156" xlink:href="#DejaVuSans-105"/>
     <use x="498.568359" xlink:href="#DejaVuSans-111"/>
     <use x="559.75" xlink:href="#DejaVuSans-110"/>
     <use x="623.128906" xlink:href="#DejaVuSans-90"/>
    </g>
   </g>
   <g id="legend_1">
    <g id="patch_7">
     <path d="M 1357.516562 55.51375 
L 1427.291563 55.51375 
Q 1429.291563 55.51375 1429.291563 53.51375 
L 1429.291563 25.1575 
Q 1429.291563 23.1575 1427.291563 23.1575 
L 1357.516562 23.1575 
Q 1355.516562 23.1575 1355.516562 25.1575 
L 1355.516562 53.51375 
Q 1355.516562 55.51375 1357.516562 55.51375 
z
" style="fill:#ffffff;opacity:0.8;stroke:#cccccc;stroke-linejoin:miter;"/>
    </g>
    <g id="line2d_34">
     <path d="M 1359.516562 31.255938 
L 1379.516562 31.255938 
" style="fill:none;stroke:#1f77b4;stroke-linecap:square;stroke-width:1.5;"/>
    </g>
    <g id="line2d_35"/>
    <g id="text_31">
     <!-- normal -->
     <g transform="translate(1387.516562 34.755938)scale(0.1 -0.1)">
      <use xlink:href="#DejaVuSans-110"/>
      <use x="63.378906" xlink:href="#DejaVuSans-111"/>
      <use x="124.560547" xlink:href="#DejaVuSans-114"/>
      <use x="165.658203" xlink:href="#DejaVuSans-109"/>
      <use x="263.070312" xlink:href="#DejaVuSans-97"/>
      <use x="324.349609" xlink:href="#DejaVuSans-108"/>
     </g>
    </g>
    <g id="line2d_36">
     <path d="M 1359.516562 45.934063 
L 1379.516562 45.934063 
" style="fill:none;stroke:#ff4500;stroke-linecap:square;stroke-width:1.5;"/>
    </g>
    <g id="line2d_37"/>
    <g id="text_32">
     <!-- pothole -->
     <defs>
      <path d="M 54.890625 33.015625 
L 54.890625 0 
L 45.90625 0 
L 45.90625 32.71875 
Q 45.90625 40.484375 42.875 44.328125 
Q 39.84375 48.1875 33.796875 48.1875 
Q 26.515625 48.1875 22.3125 43.546875 
Q 18.109375 38.921875 18.109375 30.90625 
L 18.109375 0 
L 9.078125 0 
L 9.078125 75.984375 
L 18.109375 75.984375 
L 18.109375 46.1875 
Q 21.34375 51.125 25.703125 53.5625 
Q 30.078125 56 35.796875 56 
Q 45.21875 56 50.046875 50.171875 
Q 54.890625 44.34375 54.890625 33.015625 
z
" id="DejaVuSans-104"/>
     </defs>
     <g transform="translate(1387.516562 49.434063)scale(0.1 -0.1)">
      <use xlink:href="#DejaVuSans-112"/>
      <use x="63.476562" xlink:href="#DejaVuSans-111"/>
      <use x="124.658203" xlink:href="#DejaVuSans-116"/>
      <use x="163.867188" xlink:href="#DejaVuSans-104"/>
      <use x="227.246094" xlink:href="#DejaVuSans-111"/>
      <use x="288.427734" xlink:href="#DejaVuSans-108"/>
      <use x="316.210938" xlink:href="#DejaVuSans-101"/>
     </g>
    </g>
   </g>
  </g>
 </g>
 <defs>
  <clipPath id="pf3c74527f5">
   <rect height="271.8" width="1395" x="39.291562" y="18.1575"/>
  </clipPath>
 </defs>
</svg>
