<?xml version="1.0" encoding="utf-8" standalone="no"?>
<!DOCTYPE svg PUBLIC "-//W3C//DTD SVG 1.1//EN"
  "http://www.w3.org/Graphics/SVG/1.1/DTD/svg11.dtd">
<!-- Created with matplotlib (https://matplotlib.org/) -->
<svg height="317.274375pt" version="1.1" viewBox="0 0 938.067371 317.274375" width="938.067371pt" xmlns="http://www.w3.org/2000/svg" xmlns:xlink="http://www.w3.org/1999/xlink">
 <defs>
  <style type="text/css">
*{stroke-linecap:butt;stroke-linejoin:round;}
  </style>
 </defs>
 <g id="figure_1">
  <g id="patch_1">
   <path d="M 0 317.274375 
L 938.067371 317.274375 
L 938.067371 0 
L 0 0 
z
" style="fill:#ffffff;"/>
  </g>
  <g id="axes_1">
   <g id="patch_2">
    <path d="M 35.420312 286.918125 
L 445.71443 286.918125 
L 445.71443 15.118125 
L 35.420312 15.118125 
z
" style="fill:#ffffff;"/>
   </g>
   <g id="matplotlib.axis_1">
    <g id="xtick_1">
     <g id="line2d_1">
      <defs>
       <path d="M 0 0 
L 0 3.5 
" id="m13dfc8785e" style="stroke:#000000;stroke-width:0.8;"/>
      </defs>
      <g>
       <use style="stroke:#000000;stroke-width:0.8;" x="51.861076" xlink:href="#m13dfc8785e" y="286.918125"/>
      </g>
     </g>
     <g id="text_1">
      <!-- 40.0 -->
      <defs>
       <path d="M 37.796875 64.3125 
L 12.890625 25.390625 
L 37.796875 25.390625 
z
M 35.203125 72.90625 
L 47.609375 72.90625 
L 47.609375 25.390625 
L 58.015625 25.390625 
L 58.015625 17.1875 
L 47.609375 17.1875 
L 47.609375 0 
L 37.796875 0 
L 37.796875 17.1875 
L 4.890625 17.1875 
L 4.890625 26.703125 
z
" id="DejaVuSans-52"/>
       <path d="M 31.78125 66.40625 
Q 24.171875 66.40625 20.328125 58.90625 
Q 16.5 51.421875 16.5 36.375 
Q 16.5 21.390625 20.328125 13.890625 
Q 24.171875 6.390625 31.78125 6.390625 
Q 39.453125 6.390625 43.28125 13.890625 
Q 47.125 21.390625 47.125 36.375 
Q 47.125 51.421875 43.28125 58.90625 
Q 39.453125 66.40625 31.78125 66.40625 
z
M 31.78125 74.21875 
Q 44.046875 74.21875 50.515625 64.515625 
Q 56.984375 54.828125 56.984375 36.375 
Q 56.984375 17.96875 50.515625 8.265625 
Q 44.046875 -1.421875 31.78125 -1.421875 
Q 19.53125 -1.421875 13.0625 8.265625 
Q 6.59375 17.96875 6.59375 36.375 
Q 6.59375 54.828125 13.0625 64.515625 
Q 19.53125 74.21875 31.78125 74.21875 
z
" id="DejaVuSans-48"/>
       <path d="M 10.6875 12.40625 
L 21 12.40625 
L 21 0 
L 10.6875 0 
z
" id="DejaVuSans-46"/>
      </defs>
      <g transform="translate(40.728263 301.516563)scale(0.1 -0.1)">
       <use xlink:href="#DejaVuSans-52"/>
       <use x="63.623047" xlink:href="#DejaVuSans-48"/>
       <use x="127.246094" xlink:href="#DejaVuSans-46"/>
       <use x="159.033203" xlink:href="#DejaVuSans-48"/>
      </g>
     </g>
    </g>
    <g id="xtick_2">
     <g id="line2d_2">
      <g>
       <use style="stroke:#000000;stroke-width:0.8;" x="125.493381" xlink:href="#m13dfc8785e" y="286.918125"/>
      </g>
     </g>
     <g id="text_2">
      <!-- 40.2 -->
      <defs>
       <path d="M 19.1875 8.296875 
L 53.609375 8.296875 
L 53.609375 0 
L 7.328125 0 
L 7.328125 8.296875 
Q 12.9375 14.109375 22.625 23.890625 
Q 32.328125 33.6875 34.8125 36.53125 
Q 39.546875 41.84375 41.421875 45.53125 
Q 43.3125 49.21875 43.3125 52.78125 
Q 43.3125 58.59375 39.234375 62.25 
Q 35.15625 65.921875 28.609375 65.921875 
Q 23.96875 65.921875 18.8125 64.3125 
Q 13.671875 62.703125 7.8125 59.421875 
L 7.8125 69.390625 
Q 13.765625 71.78125 18.9375 73 
Q 24.125 74.21875 28.421875 74.21875 
Q 39.75 74.21875 46.484375 68.546875 
Q 53.21875 62.890625 53.21875 53.421875 
Q 53.21875 48.921875 51.53125 44.890625 
Q 49.859375 40.875 45.40625 35.40625 
Q 44.1875 33.984375 37.640625 27.21875 
Q 31.109375 20.453125 19.1875 8.296875 
z
" id="DejaVuSans-50"/>
      </defs>
      <g transform="translate(114.360569 301.516563)scale(0.1 -0.1)">
       <use xlink:href="#DejaVuSans-52"/>
       <use x="63.623047" xlink:href="#DejaVuSans-48"/>
       <use x="127.246094" xlink:href="#DejaVuSans-46"/>
       <use x="159.033203" xlink:href="#DejaVuSans-50"/>
      </g>
     </g>
    </g>
    <g id="xtick_3">
     <g id="line2d_3">
      <g>
       <use style="stroke:#000000;stroke-width:0.8;" x="199.125687" xlink:href="#m13dfc8785e" y="286.918125"/>
      </g>
     </g>
     <g id="text_3">
      <!-- 40.4 -->
      <g transform="translate(187.992874 301.516563)scale(0.1 -0.1)">
       <use xlink:href="#DejaVuSans-52"/>
       <use x="63.623047" xlink:href="#DejaVuSans-48"/>
       <use x="127.246094" xlink:href="#DejaVuSans-46"/>
       <use x="159.033203" xlink:href="#DejaVuSans-52"/>
      </g>
     </g>
    </g>
    <g id="xtick_4">
     <g id="line2d_4">
      <g>
       <use style="stroke:#000000;stroke-width:0.8;" x="272.757992" xlink:href="#m13dfc8785e" y="286.918125"/>
      </g>
     </g>
     <g id="text_4">
      <!-- 40.6 -->
      <defs>
       <path d="M 33.015625 40.375 
Q 26.375 40.375 22.484375 35.828125 
Q 18.609375 31.296875 18.609375 23.390625 
Q 18.609375 15.53125 22.484375 10.953125 
Q 26.375 6.390625 33.015625 6.390625 
Q 39.65625 6.390625 43.53125 10.953125 
Q 47.40625 15.53125 47.40625 23.390625 
Q 47.40625 31.296875 43.53125 35.828125 
Q 39.65625 40.375 33.015625 40.375 
z
M 52.59375 71.296875 
L 52.59375 62.3125 
Q 48.875 64.0625 45.09375 64.984375 
Q 41.3125 65.921875 37.59375 65.921875 
Q 27.828125 65.921875 22.671875 59.328125 
Q 17.53125 52.734375 16.796875 39.40625 
Q 19.671875 43.65625 24.015625 45.921875 
Q 28.375 48.1875 33.59375 48.1875 
Q 44.578125 48.1875 50.953125 41.515625 
Q 57.328125 34.859375 57.328125 23.390625 
Q 57.328125 12.15625 50.6875 5.359375 
Q 44.046875 -1.421875 33.015625 -1.421875 
Q 20.359375 -1.421875 13.671875 8.265625 
Q 6.984375 17.96875 6.984375 36.375 
Q 6.984375 53.65625 15.1875 63.9375 
Q 23.390625 74.21875 37.203125 74.21875 
Q 40.921875 74.21875 44.703125 73.484375 
Q 48.484375 72.75 52.59375 71.296875 
z
" id="DejaVuSans-54"/>
      </defs>
      <g transform="translate(261.625179 301.516563)scale(0.1 -0.1)">
       <use xlink:href="#DejaVuSans-52"/>
       <use x="63.623047" xlink:href="#DejaVuSans-48"/>
       <use x="127.246094" xlink:href="#DejaVuSans-46"/>
       <use x="159.033203" xlink:href="#DejaVuSans-54"/>
      </g>
     </g>
    </g>
    <g id="xtick_5">
     <g id="line2d_5">
      <g>
       <use style="stroke:#000000;stroke-width:0.8;" x="346.390297" xlink:href="#m13dfc8785e" y="286.918125"/>
      </g>
     </g>
     <g id="text_5">
      <!-- 40.8 -->
      <defs>
       <path d="M 31.78125 34.625 
Q 24.75 34.625 20.71875 30.859375 
Q 16.703125 27.09375 16.703125 20.515625 
Q 16.703125 13.921875 20.71875 10.15625 
Q 24.75 6.390625 31.78125 6.390625 
Q 38.8125 6.390625 42.859375 10.171875 
Q 46.921875 13.96875 46.921875 20.515625 
Q 46.921875 27.09375 42.890625 30.859375 
Q 38.875 34.625 31.78125 34.625 
z
M 21.921875 38.8125 
Q 15.578125 40.375 12.03125 44.71875 
Q 8.5 49.078125 8.5 55.328125 
Q 8.5 64.0625 14.71875 69.140625 
Q 20.953125 74.21875 31.78125 74.21875 
Q 42.671875 74.21875 48.875 69.140625 
Q 55.078125 64.0625 55.078125 55.328125 
Q 55.078125 49.078125 51.53125 44.71875 
Q 48 40.375 41.703125 38.8125 
Q 48.828125 37.15625 52.796875 32.3125 
Q 56.78125 27.484375 56.78125 20.515625 
Q 56.78125 9.90625 50.3125 4.234375 
Q 43.84375 -1.421875 31.78125 -1.421875 
Q 19.734375 -1.421875 13.25 4.234375 
Q 6.78125 9.90625 6.78125 20.515625 
Q 6.78125 27.484375 10.78125 32.3125 
Q 14.796875 37.15625 21.921875 38.8125 
z
M 18.3125 54.390625 
Q 18.3125 48.734375 21.84375 45.5625 
Q 25.390625 42.390625 31.78125 42.390625 
Q 38.140625 42.390625 41.71875 45.5625 
Q 45.3125 48.734375 45.3125 54.390625 
Q 45.3125 60.0625 41.71875 63.234375 
Q 38.140625 66.40625 31.78125 66.40625 
Q 25.390625 66.40625 21.84375 63.234375 
Q 18.3125 60.0625 18.3125 54.390625 
z
" id="DejaVuSans-56"/>
      </defs>
      <g transform="translate(335.257485 301.516563)scale(0.1 -0.1)">
       <use xlink:href="#DejaVuSans-52"/>
       <use x="63.623047" xlink:href="#DejaVuSans-48"/>
       <use x="127.246094" xlink:href="#DejaVuSans-46"/>
       <use x="159.033203" xlink:href="#DejaVuSans-56"/>
      </g>
     </g>
    </g>
    <g id="xtick_6">
     <g id="line2d_6">
      <g>
       <use style="stroke:#000000;stroke-width:0.8;" x="420.022602" xlink:href="#m13dfc8785e" y="286.918125"/>
      </g>
     </g>
     <g id="text_6">
      <!-- 41.0 -->
      <defs>
       <path d="M 12.40625 8.296875 
L 28.515625 8.296875 
L 28.515625 63.921875 
L 10.984375 60.40625 
L 10.984375 69.390625 
L 28.421875 72.90625 
L 38.28125 72.90625 
L 38.28125 8.296875 
L 54.390625 8.296875 
L 54.390625 0 
L 12.40625 0 
z
" id="DejaVuSans-49"/>
      </defs>
      <g transform="translate(408.88979 301.516563)scale(0.1 -0.1)">
       <use xlink:href="#DejaVuSans-52"/>
       <use x="63.623047" xlink:href="#DejaVuSans-49"/>
       <use x="127.246094" xlink:href="#DejaVuSans-46"/>
       <use x="159.033203" xlink:href="#DejaVuSans-48"/>
      </g>
     </g>
    </g>
    <g id="text_7">
     <!-- Time (s) -->
     <defs>
      <path d="M -0.296875 72.90625 
L 61.375 72.90625 
L 61.375 64.59375 
L 35.5 64.59375 
L 35.5 0 
L 25.59375 0 
L 25.59375 64.59375 
L -0.296875 64.59375 
z
" id="DejaVuSans-84"/>
      <path d="M 9.421875 54.6875 
L 18.40625 54.6875 
L 18.40625 0 
L 9.421875 0 
z
M 9.421875 75.984375 
L 18.40625 75.984375 
L 18.40625 64.59375 
L 9.421875 64.59375 
z
" id="DejaVuSans-105"/>
      <path d="M 52 44.1875 
Q 55.375 50.25 60.0625 53.125 
Q 64.75 56 71.09375 56 
Q 79.640625 56 84.28125 50.015625 
Q 88.921875 44.046875 88.921875 33.015625 
L 88.921875 0 
L 79.890625 0 
L 79.890625 32.71875 
Q 79.890625 40.578125 77.09375 44.375 
Q 74.3125 48.1875 68.609375 48.1875 
Q 61.625 48.1875 57.5625 43.546875 
Q 53.515625 38.921875 53.515625 30.90625 
L 53.515625 0 
L 44.484375 0 
L 44.484375 32.71875 
Q 44.484375 40.625 41.703125 44.40625 
Q 38.921875 48.1875 33.109375 48.1875 
Q 26.21875 48.1875 22.15625 43.53125 
Q 18.109375 38.875 18.109375 30.90625 
L 18.109375 0 
L 9.078125 0 
L 9.078125 54.6875 
L 18.109375 54.6875 
L 18.109375 46.1875 
Q 21.1875 51.21875 25.484375 53.609375 
Q 29.78125 56 35.6875 56 
Q 41.65625 56 45.828125 52.96875 
Q 50 49.953125 52 44.1875 
z
" id="DejaVuSans-109"/>
      <path d="M 56.203125 29.59375 
L 56.203125 25.203125 
L 14.890625 25.203125 
Q 15.484375 15.921875 20.484375 11.0625 
Q 25.484375 6.203125 34.421875 6.203125 
Q 39.59375 6.203125 44.453125 7.46875 
Q 49.3125 8.734375 54.109375 11.28125 
L 54.109375 2.78125 
Q 49.265625 0.734375 44.1875 -0.34375 
Q 39.109375 -1.421875 33.890625 -1.421875 
Q 20.796875 -1.421875 13.15625 6.1875 
Q 5.515625 13.8125 5.515625 26.8125 
Q 5.515625 40.234375 12.765625 48.109375 
Q 20.015625 56 32.328125 56 
Q 43.359375 56 49.78125 48.890625 
Q 56.203125 41.796875 56.203125 29.59375 
z
M 47.21875 32.234375 
Q 47.125 39.59375 43.09375 43.984375 
Q 39.0625 48.390625 32.421875 48.390625 
Q 24.90625 48.390625 20.390625 44.140625 
Q 15.875 39.890625 15.1875 32.171875 
z
" id="DejaVuSans-101"/>
      <path id="DejaVuSans-32"/>
      <path d="M 31 75.875 
Q 24.46875 64.65625 21.28125 53.65625 
Q 18.109375 42.671875 18.109375 31.390625 
Q 18.109375 20.125 21.3125 9.0625 
Q 24.515625 -2 31 -13.1875 
L 23.1875 -13.1875 
Q 15.875 -1.703125 12.234375 9.375 
Q 8.59375 20.453125 8.59375 31.390625 
Q 8.59375 42.28125 12.203125 53.3125 
Q 15.828125 64.359375 23.1875 75.875 
z
" id="DejaVuSans-40"/>
      <path d="M 44.28125 53.078125 
L 44.28125 44.578125 
Q 40.484375 46.53125 36.375 47.5 
Q 32.28125 48.484375 27.875 48.484375 
Q 21.1875 48.484375 17.84375 46.4375 
Q 14.5 44.390625 14.5 40.28125 
Q 14.5 37.15625 16.890625 35.375 
Q 19.28125 33.59375 26.515625 31.984375 
L 29.59375 31.296875 
Q 39.15625 29.25 43.1875 25.515625 
Q 47.21875 21.78125 47.21875 15.09375 
Q 47.21875 7.46875 41.1875 3.015625 
Q 35.15625 -1.421875 24.609375 -1.421875 
Q 20.21875 -1.421875 15.453125 -0.5625 
Q 10.6875 0.296875 5.421875 2 
L 5.421875 11.28125 
Q 10.40625 8.6875 15.234375 7.390625 
Q 20.0625 6.109375 24.8125 6.109375 
Q 31.15625 6.109375 34.5625 8.28125 
Q 37.984375 10.453125 37.984375 14.40625 
Q 37.984375 18.0625 35.515625 20.015625 
Q 33.0625 21.96875 24.703125 23.78125 
L 21.578125 24.515625 
Q 13.234375 26.265625 9.515625 29.90625 
Q 5.8125 33.546875 5.8125 39.890625 
Q 5.8125 47.609375 11.28125 51.796875 
Q 16.75 56 26.8125 56 
Q 31.78125 56 36.171875 55.265625 
Q 40.578125 54.546875 44.28125 53.078125 
z
" id="DejaVuSans-115"/>
      <path d="M 8.015625 75.875 
L 15.828125 75.875 
Q 23.140625 64.359375 26.78125 53.3125 
Q 30.421875 42.28125 30.421875 31.390625 
Q 30.421875 20.453125 26.78125 9.375 
Q 23.140625 -1.703125 15.828125 -13.1875 
L 8.015625 -13.1875 
Q 14.5 -2 17.703125 9.0625 
Q 20.90625 20.125 20.90625 31.390625 
Q 20.90625 42.671875 17.703125 53.65625 
Q 14.5 64.65625 8.015625 75.875 
z
" id="DejaVuSans-41"/>
     </defs>
     <g transform="translate(220.084559 315.194688)scale(0.1 -0.1)">
      <use xlink:href="#DejaVuSans-84"/>
      <use x="61.037109" xlink:href="#DejaVuSans-105"/>
      <use x="88.820312" xlink:href="#DejaVuSans-109"/>
      <use x="186.232422" xlink:href="#DejaVuSans-101"/>
      <use x="247.755859" xlink:href="#DejaVuSans-32"/>
      <use x="279.542969" xlink:href="#DejaVuSans-40"/>
      <use x="318.556641" xlink:href="#DejaVuSans-115"/>
      <use x="370.65625" xlink:href="#DejaVuSans-41"/>
     </g>
    </g>
   </g>
   <g id="matplotlib.axis_2">
    <g id="ytick_1">
     <g id="line2d_7">
      <defs>
       <path d="M 0 0 
L -3.5 0 
" id="m409866cba1" style="stroke:#000000;stroke-width:0.8;"/>
      </defs>
      <g>
       <use style="stroke:#000000;stroke-width:0.8;" x="35.420312" xlink:href="#m409866cba1" y="278.582421"/>
      </g>
     </g>
     <g id="text_8">
      <!-- −3 -->
      <defs>
       <path d="M 10.59375 35.5 
L 73.1875 35.5 
L 73.1875 27.203125 
L 10.59375 27.203125 
z
" id="DejaVuSans-8722"/>
       <path d="M 40.578125 39.3125 
Q 47.65625 37.796875 51.625 33 
Q 55.609375 28.21875 55.609375 21.1875 
Q 55.609375 10.40625 48.1875 4.484375 
Q 40.765625 -1.421875 27.09375 -1.421875 
Q 22.515625 -1.421875 17.65625 -0.515625 
Q 12.796875 0.390625 7.625 2.203125 
L 7.625 11.71875 
Q 11.71875 9.328125 16.59375 8.109375 
Q 21.484375 6.890625 26.8125 6.890625 
Q 36.078125 6.890625 40.9375 10.546875 
Q 45.796875 14.203125 45.796875 21.1875 
Q 45.796875 27.640625 41.28125 31.265625 
Q 36.765625 34.90625 28.71875 34.90625 
L 20.21875 34.90625 
L 20.21875 43.015625 
L 29.109375 43.015625 
Q 36.375 43.015625 40.234375 45.921875 
Q 44.09375 48.828125 44.09375 54.296875 
Q 44.09375 59.90625 40.109375 62.90625 
Q 36.140625 65.921875 28.71875 65.921875 
Q 24.65625 65.921875 20.015625 65.03125 
Q 15.375 64.15625 9.8125 62.3125 
L 9.8125 71.09375 
Q 15.4375 72.65625 20.34375 73.4375 
Q 25.25 74.21875 29.59375 74.21875 
Q 40.828125 74.21875 47.359375 69.109375 
Q 53.90625 64.015625 53.90625 55.328125 
Q 53.90625 49.265625 50.4375 45.09375 
Q 46.96875 40.921875 40.578125 39.3125 
z
" id="DejaVuSans-51"/>
      </defs>
      <g transform="translate(13.678125 282.38164)scale(0.1 -0.1)">
       <use xlink:href="#DejaVuSans-8722"/>
       <use x="83.789062" xlink:href="#DejaVuSans-51"/>
      </g>
     </g>
    </g>
    <g id="ytick_2">
     <g id="line2d_8">
      <g>
       <use style="stroke:#000000;stroke-width:0.8;" x="35.420312" xlink:href="#m409866cba1" y="229.826369"/>
      </g>
     </g>
     <g id="text_9">
      <!-- −2 -->
      <g transform="translate(13.678125 233.625588)scale(0.1 -0.1)">
       <use xlink:href="#DejaVuSans-8722"/>
       <use x="83.789062" xlink:href="#DejaVuSans-50"/>
      </g>
     </g>
    </g>
    <g id="ytick_3">
     <g id="line2d_9">
      <g>
       <use style="stroke:#000000;stroke-width:0.8;" x="35.420312" xlink:href="#m409866cba1" y="181.070316"/>
      </g>
     </g>
     <g id="text_10">
      <!-- −1 -->
      <g transform="translate(13.678125 184.869535)scale(0.1 -0.1)">
       <use xlink:href="#DejaVuSans-8722"/>
       <use x="83.789062" xlink:href="#DejaVuSans-49"/>
      </g>
     </g>
    </g>
    <g id="ytick_4">
     <g id="line2d_10">
      <g>
       <use style="stroke:#000000;stroke-width:0.8;" x="35.420312" xlink:href="#m409866cba1" y="132.314264"/>
      </g>
     </g>
     <g id="text_11">
      <!-- 0 -->
      <g transform="translate(22.057812 136.113483)scale(0.1 -0.1)">
       <use xlink:href="#DejaVuSans-48"/>
      </g>
     </g>
    </g>
    <g id="ytick_5">
     <g id="line2d_11">
      <g>
       <use style="stroke:#000000;stroke-width:0.8;" x="35.420312" xlink:href="#m409866cba1" y="83.558211"/>
      </g>
     </g>
     <g id="text_12">
      <!-- 1 -->
      <g transform="translate(22.057812 87.35743)scale(0.1 -0.1)">
       <use xlink:href="#DejaVuSans-49"/>
      </g>
     </g>
    </g>
    <g id="ytick_6">
     <g id="line2d_12">
      <g>
       <use style="stroke:#000000;stroke-width:0.8;" x="35.420312" xlink:href="#m409866cba1" y="34.802159"/>
      </g>
     </g>
     <g id="text_13">
      <!-- 2 -->
      <g transform="translate(22.057812 38.601378)scale(0.1 -0.1)">
       <use xlink:href="#DejaVuSans-50"/>
      </g>
     </g>
    </g>
    <g id="text_14">
     <!-- Amplitude -->
     <defs>
      <path d="M 34.1875 63.1875 
L 20.796875 26.90625 
L 47.609375 26.90625 
z
M 28.609375 72.90625 
L 39.796875 72.90625 
L 67.578125 0 
L 57.328125 0 
L 50.6875 18.703125 
L 17.828125 18.703125 
L 11.1875 0 
L 0.78125 0 
z
" id="DejaVuSans-65"/>
      <path d="M 18.109375 8.203125 
L 18.109375 -20.796875 
L 9.078125 -20.796875 
L 9.078125 54.6875 
L 18.109375 54.6875 
L 18.109375 46.390625 
Q 20.953125 51.265625 25.265625 53.625 
Q 29.59375 56 35.59375 56 
Q 45.5625 56 51.78125 48.09375 
Q 58.015625 40.1875 58.015625 27.296875 
Q 58.015625 14.40625 51.78125 6.484375 
Q 45.5625 -1.421875 35.59375 -1.421875 
Q 29.59375 -1.421875 25.265625 0.953125 
Q 20.953125 3.328125 18.109375 8.203125 
z
M 48.6875 27.296875 
Q 48.6875 37.203125 44.609375 42.84375 
Q 40.53125 48.484375 33.40625 48.484375 
Q 26.265625 48.484375 22.1875 42.84375 
Q 18.109375 37.203125 18.109375 27.296875 
Q 18.109375 17.390625 22.1875 11.75 
Q 26.265625 6.109375 33.40625 6.109375 
Q 40.53125 6.109375 44.609375 11.75 
Q 48.6875 17.390625 48.6875 27.296875 
z
" id="DejaVuSans-112"/>
      <path d="M 9.421875 75.984375 
L 18.40625 75.984375 
L 18.40625 0 
L 9.421875 0 
z
" id="DejaVuSans-108"/>
      <path d="M 18.3125 70.21875 
L 18.3125 54.6875 
L 36.8125 54.6875 
L 36.8125 47.703125 
L 18.3125 47.703125 
L 18.3125 18.015625 
Q 18.3125 11.328125 20.140625 9.421875 
Q 21.96875 7.515625 27.59375 7.515625 
L 36.8125 7.515625 
L 36.8125 0 
L 27.59375 0 
Q 17.1875 0 13.234375 3.875 
Q 9.28125 7.765625 9.28125 18.015625 
L 9.28125 47.703125 
L 2.6875 47.703125 
L 2.6875 54.6875 
L 9.28125 54.6875 
L 9.28125 70.21875 
z
" id="DejaVuSans-116"/>
      <path d="M 8.5 21.578125 
L 8.5 54.6875 
L 17.484375 54.6875 
L 17.484375 21.921875 
Q 17.484375 14.15625 20.5 10.265625 
Q 23.53125 6.390625 29.59375 6.390625 
Q 36.859375 6.390625 41.078125 11.03125 
Q 45.3125 15.671875 45.3125 23.6875 
L 45.3125 54.6875 
L 54.296875 54.6875 
L 54.296875 0 
L 45.3125 0 
L 45.3125 8.40625 
Q 42.046875 3.421875 37.71875 1 
Q 33.40625 -1.421875 27.6875 -1.421875 
Q 18.265625 -1.421875 13.375 4.4375 
Q 8.5 10.296875 8.5 21.578125 
z
M 31.109375 56 
z
" id="DejaVuSans-117"/>
      <path d="M 45.40625 46.390625 
L 45.40625 75.984375 
L 54.390625 75.984375 
L 54.390625 0 
L 45.40625 0 
L 45.40625 8.203125 
Q 42.578125 3.328125 38.25 0.953125 
Q 33.9375 -1.421875 27.875 -1.421875 
Q 17.96875 -1.421875 11.734375 6.484375 
Q 5.515625 14.40625 5.515625 27.296875 
Q 5.515625 40.1875 11.734375 48.09375 
Q 17.96875 56 27.875 56 
Q 33.9375 56 38.25 53.625 
Q 42.578125 51.265625 45.40625 46.390625 
z
M 14.796875 27.296875 
Q 14.796875 17.390625 18.875 11.75 
Q 22.953125 6.109375 30.078125 6.109375 
Q 37.203125 6.109375 41.296875 11.75 
Q 45.40625 17.390625 45.40625 27.296875 
Q 45.40625 37.203125 41.296875 42.84375 
Q 37.203125 48.484375 30.078125 48.484375 
Q 22.953125 48.484375 18.875 42.84375 
Q 14.796875 37.203125 14.796875 27.296875 
z
" id="DejaVuSans-100"/>
     </defs>
     <g transform="translate(7.598437 176.640781)rotate(-90)scale(0.1 -0.1)">
      <use xlink:href="#DejaVuSans-65"/>
      <use x="68.408203" xlink:href="#DejaVuSans-109"/>
      <use x="165.820312" xlink:href="#DejaVuSans-112"/>
      <use x="229.296875" xlink:href="#DejaVuSans-108"/>
      <use x="257.080078" xlink:href="#DejaVuSans-105"/>
      <use x="284.863281" xlink:href="#DejaVuSans-116"/>
      <use x="324.072266" xlink:href="#DejaVuSans-117"/>
      <use x="387.451172" xlink:href="#DejaVuSans-100"/>
      <use x="450.927734" xlink:href="#DejaVuSans-101"/>
     </g>
    </g>
   </g>
   <g id="line2d_13">
    <path clip-path="url(#p064afc7d7a)" d="M 54.070045 128.44609 
L 61.433276 181.35343 
L 69.532829 130.312681 
L 79.105029 106.337881 
L 88.309067 139.645639 
L 98.249428 144.020857 
L 106.717143 114.096622 
L 116.657505 77.054937 
L 125.12522 86.097007 
L 135.065581 124.187673 
L 143.901458 122.37911 
L 153.473657 121.388157 
L 162.309534 199.08642 
L 171.881734 155.395236 
L 180.71761 168.870553 
L 189.921648 116.254845 
L 198.757525 214.194726 
L 208.697886 156.912167 
L 217.533763 196.170104 
L 227.474124 188.878568 
L 235.941839 195.002833 
L 245.145877 158.89556 
L 253.981754 109.13814 
L 262.081308 139.645639 
L 269.8127 126.229094 
L 278.280415 138.887545 
L 288.220776 143.729226 
L 296.688491 203.286065 
L 306.628852 175.520053 
L 315.096567 54.364208 
L 325.036929 143.203991 
L 333.872805 258.06074 
L 343.445005 37.44734 
L 352.280882 136.846123 
L 361.853081 267.918188 
L 370.688958 98.929544 
L 380.629319 252.635796 
L 389.097034 136.204087 
L 399.037395 143.495623 
L 407.505111 189.228229 
L 417.445472 125.879434 
" style="fill:none;stroke:#1f77b4;stroke-linecap:square;stroke-width:1.5;"/>
    <defs>
     <path d="M 0 3 
C 0.795609 3 1.55874 2.683901 2.12132 2.12132 
C 2.683901 1.55874 3 0.795609 3 0 
C 3 -0.795609 2.683901 -1.55874 2.12132 -2.12132 
C 1.55874 -2.683901 0.795609 -3 0 -3 
C -0.795609 -3 -1.55874 -2.683901 -2.12132 -2.12132 
C -2.683901 -1.55874 -3 -0.795609 -3 0 
C -3 0.795609 -2.683901 1.55874 -2.12132 2.12132 
C -1.55874 2.683901 -0.795609 3 0 3 
z
" id="m5ac044b559" style="stroke:#1f77b4;"/>
    </defs>
    <g clip-path="url(#p064afc7d7a)">
     <use style="fill:#1f77b4;stroke:#1f77b4;" x="54.070045" xlink:href="#m5ac044b559" y="128.44609"/>
     <use style="fill:#1f77b4;stroke:#1f77b4;" x="61.433276" xlink:href="#m5ac044b559" y="181.35343"/>
     <use style="fill:#1f77b4;stroke:#1f77b4;" x="69.532829" xlink:href="#m5ac044b559" y="130.312681"/>
     <use style="fill:#1f77b4;stroke:#1f77b4;" x="79.105029" xlink:href="#m5ac044b559" y="106.337881"/>
     <use style="fill:#1f77b4;stroke:#1f77b4;" x="88.309067" xlink:href="#m5ac044b559" y="139.645639"/>
     <use style="fill:#1f77b4;stroke:#1f77b4;" x="98.249428" xlink:href="#m5ac044b559" y="144.020857"/>
     <use style="fill:#1f77b4;stroke:#1f77b4;" x="106.717143" xlink:href="#m5ac044b559" y="114.096622"/>
     <use style="fill:#1f77b4;stroke:#1f77b4;" x="116.657505" xlink:href="#m5ac044b559" y="77.054937"/>
     <use style="fill:#1f77b4;stroke:#1f77b4;" x="125.12522" xlink:href="#m5ac044b559" y="86.097007"/>
     <use style="fill:#1f77b4;stroke:#1f77b4;" x="135.065581" xlink:href="#m5ac044b559" y="124.187673"/>
     <use style="fill:#1f77b4;stroke:#1f77b4;" x="143.901458" xlink:href="#m5ac044b559" y="122.37911"/>
     <use style="fill:#1f77b4;stroke:#1f77b4;" x="153.473657" xlink:href="#m5ac044b559" y="121.388157"/>
     <use style="fill:#1f77b4;stroke:#1f77b4;" x="162.309534" xlink:href="#m5ac044b559" y="199.08642"/>
     <use style="fill:#1f77b4;stroke:#1f77b4;" x="171.881734" xlink:href="#m5ac044b559" y="155.395236"/>
     <use style="fill:#1f77b4;stroke:#1f77b4;" x="180.71761" xlink:href="#m5ac044b559" y="168.870553"/>
     <use style="fill:#1f77b4;stroke:#1f77b4;" x="189.921648" xlink:href="#m5ac044b559" y="116.254845"/>
     <use style="fill:#1f77b4;stroke:#1f77b4;" x="198.757525" xlink:href="#m5ac044b559" y="214.194726"/>
     <use style="fill:#1f77b4;stroke:#1f77b4;" x="208.697886" xlink:href="#m5ac044b559" y="156.912167"/>
     <use style="fill:#1f77b4;stroke:#1f77b4;" x="217.533763" xlink:href="#m5ac044b559" y="196.170104"/>
     <use style="fill:#1f77b4;stroke:#1f77b4;" x="227.474124" xlink:href="#m5ac044b559" y="188.878568"/>
     <use style="fill:#1f77b4;stroke:#1f77b4;" x="235.941839" xlink:href="#m5ac044b559" y="195.002833"/>
     <use style="fill:#1f77b4;stroke:#1f77b4;" x="245.145877" xlink:href="#m5ac044b559" y="158.89556"/>
     <use style="fill:#1f77b4;stroke:#1f77b4;" x="253.981754" xlink:href="#m5ac044b559" y="109.13814"/>
     <use style="fill:#1f77b4;stroke:#1f77b4;" x="262.081308" xlink:href="#m5ac044b559" y="139.645639"/>
     <use style="fill:#1f77b4;stroke:#1f77b4;" x="269.8127" xlink:href="#m5ac044b559" y="126.229094"/>
     <use style="fill:#1f77b4;stroke:#1f77b4;" x="278.280415" xlink:href="#m5ac044b559" y="138.887545"/>
     <use style="fill:#1f77b4;stroke:#1f77b4;" x="288.220776" xlink:href="#m5ac044b559" y="143.729226"/>
     <use style="fill:#1f77b4;stroke:#1f77b4;" x="296.688491" xlink:href="#m5ac044b559" y="203.286065"/>
     <use style="fill:#1f77b4;stroke:#1f77b4;" x="306.628852" xlink:href="#m5ac044b559" y="175.520053"/>
     <use style="fill:#1f77b4;stroke:#1f77b4;" x="315.096567" xlink:href="#m5ac044b559" y="54.364208"/>
     <use style="fill:#1f77b4;stroke:#1f77b4;" x="325.036929" xlink:href="#m5ac044b559" y="143.203991"/>
     <use style="fill:#1f77b4;stroke:#1f77b4;" x="333.872805" xlink:href="#m5ac044b559" y="258.06074"/>
     <use style="fill:#1f77b4;stroke:#1f77b4;" x="343.445005" xlink:href="#m5ac044b559" y="37.44734"/>
     <use style="fill:#1f77b4;stroke:#1f77b4;" x="352.280882" xlink:href="#m5ac044b559" y="136.846123"/>
     <use style="fill:#1f77b4;stroke:#1f77b4;" x="361.853081" xlink:href="#m5ac044b559" y="267.918188"/>
     <use style="fill:#1f77b4;stroke:#1f77b4;" x="370.688958" xlink:href="#m5ac044b559" y="98.929544"/>
     <use style="fill:#1f77b4;stroke:#1f77b4;" x="380.629319" xlink:href="#m5ac044b559" y="252.635796"/>
     <use style="fill:#1f77b4;stroke:#1f77b4;" x="389.097034" xlink:href="#m5ac044b559" y="136.204087"/>
     <use style="fill:#1f77b4;stroke:#1f77b4;" x="399.037395" xlink:href="#m5ac044b559" y="143.495623"/>
     <use style="fill:#1f77b4;stroke:#1f77b4;" x="407.505111" xlink:href="#m5ac044b559" y="189.228229"/>
     <use style="fill:#1f77b4;stroke:#1f77b4;" x="417.445472" xlink:href="#m5ac044b559" y="125.879434"/>
    </g>
   </g>
   <g id="line2d_14">
    <path clip-path="url(#p064afc7d7a)" d="M 59.638349 174.701095 
L 60.374675 178.474952 
L 61.111 180.834893 
L 61.847325 181.523659 
L 62.583651 180.539638 
L 63.319976 178.098471 
L 64.056301 174.422707 
L 64.792627 169.734897 
L 66.265277 158.213337 
L 69.210579 132.817856 
L 70.68323 122.353475 
L 72.15588 114.362177 
L 72.892206 111.256618 
L 73.628531 108.723887 
L 74.364856 106.748558 
L 75.101182 105.315206 
L 75.837507 104.408407 
L 76.573832 104.012735 
L 77.310158 104.112765 
L 78.046483 104.693073 
L 78.782808 105.738234 
L 79.519134 107.231492 
L 80.255459 109.132901 
L 81.72811 113.920939 
L 83.20076 119.620747 
L 86.882387 134.694649 
L 88.355038 139.788121 
L 89.827689 143.717737 
L 90.564014 145.227455 
L 91.300339 146.43949 
L 92.036665 147.358127 
L 92.77299 147.987648 
L 93.509315 148.332335 
L 94.245641 148.396473 
L 94.981966 148.184344 
L 95.718291 147.700231 
L 96.454617 146.948418 
L 97.190942 145.933187 
L 97.927267 144.658822 
L 99.399918 141.357657 
L 100.872569 137.148562 
L 102.345219 132.164241 
L 104.554195 123.524878 
L 106.763172 113.888684 
L 111.181124 94.024181 
L 112.653774 88.151217 
L 114.126425 83.091037 
L 115.599076 79.10675 
L 116.335401 77.600287 
L 117.071726 76.460156 
L 117.808052 75.695152 
L 118.544377 75.294719 
L 119.280702 75.247687 
L 120.017028 75.542885 
L 120.753353 76.169142 
L 121.489678 77.115288 
L 122.226004 78.370152 
L 122.962329 79.922564 
L 124.43498 83.875347 
L 125.907631 88.877419 
L 128.116607 97.79938 
L 131.798233 113.441847 
L 133.270884 118.908754 
L 134.743535 123.378807 
L 135.47986 125.128033 
L 136.216185 126.5236 
L 136.952511 127.574616 
L 137.688836 128.290961 
L 138.425161 128.682512 
L 139.161487 128.759149 
L 139.897812 128.530752 
L 140.634138 128.0072 
L 141.370463 127.198371 
L 142.106788 126.114145 
L 142.843114 124.764401 
L 144.315764 121.311093 
L 147.261066 113.358271 
L 147.997391 111.819327 
L 148.733716 110.696507 
L 149.470042 110.108021 
L 150.206367 110.172081 
L 150.942692 111.006896 
L 151.679018 112.730675 
L 152.415343 115.46163 
L 153.151668 119.317971 
L 153.887994 124.406588 
L 155.360644 137.752262 
L 159.778597 184.290537 
L 160.514922 190.234207 
L 161.251247 194.958802 
L 161.987573 198.201389 
L 162.723898 199.714332 
L 163.460223 199.516447 
L 164.196549 197.852726 
L 164.932874 194.975336 
L 165.669199 191.136446 
L 167.14185 181.582842 
L 169.350826 166.345397 
L 170.087151 162.033045 
L 170.823477 158.524373 
L 171.559802 156.071549 
L 172.296127 154.911646 
L 173.032453 155.018912 
L 173.768778 156.144515 
L 174.505103 158.032546 
L 175.977754 163.072257 
L 177.450405 168.090775 
L 178.18673 169.952315 
L 178.923056 171.04083 
L 179.659381 171.100412 
L 180.395706 169.875152 
L 181.132032 167.126753 
L 181.868357 162.923535 
L 183.341008 151.475064 
L 186.286309 125.840226 
L 187.022634 120.825758 
L 187.75896 117.042577 
L 188.495285 114.827476 
L 189.23161 114.517251 
L 189.967936 116.448664 
L 190.704261 120.806283 
L 191.440586 127.270133 
L 192.176912 135.415831 
L 193.649562 155.055233 
L 195.858539 186.518593 
L 197.331189 203.87919 
L 198.067515 210.201845 
L 198.80384 214.386921 
L 199.540165 216.159021 
L 200.276491 215.736476 
L 201.012816 213.43978 
L 201.749141 209.589427 
L 202.485467 204.505913 
L 203.958117 191.921376 
L 206.167093 171.808215 
L 206.903419 166.056112 
L 207.639744 161.314307 
L 208.376069 157.903295 
L 209.112395 156.127116 
L 209.84872 156.003475 
L 210.585045 157.307148 
L 211.321371 159.805209 
L 212.057696 163.264734 
L 213.530347 172.136472 
L 216.475648 191.168798 
L 217.211974 194.83666 
L 217.948299 197.612835 
L 218.684624 199.453012 
L 219.42095 200.46419 
L 220.157275 200.758165 
L 220.8936 200.446732 
L 221.629926 199.641684 
L 222.366251 198.454816 
L 223.838902 195.382803 
L 225.311552 192.12505 
L 226.047878 190.706008 
L 226.784203 189.575915 
L 227.520528 188.846559 
L 228.256854 188.59057 
L 228.993179 188.75084 
L 229.729505 189.243428 
L 230.46583 189.984388 
L 234.147457 194.476762 
L 234.883782 194.945147 
L 235.620107 195.074302 
L 236.356433 194.783061 
L 237.092758 194.038603 
L 237.829083 192.849108 
L 238.565409 191.224054 
L 239.301734 189.17292 
L 240.038059 186.705185 
L 241.51071 180.557828 
L 242.983361 172.857811 
L 244.456011 163.680965 
L 245.928662 153.127677 
L 249.610289 125.582402 
L 251.08294 116.857065 
L 251.819265 113.514162 
L 252.55559 111.027256 
L 253.291916 109.528461 
L 254.028241 109.149877 
L 254.764566 109.955342 
L 255.500892 111.782583 
L 256.237217 114.422574 
L 257.709868 121.304702 
L 259.918844 132.497864 
L 260.655169 135.624805 
L 261.391494 138.101313 
L 262.12782 139.718377 
L 262.864145 140.342336 
L 263.60047 140.08909 
L 264.336796 139.126135 
L 265.073121 137.620966 
L 266.545772 133.653975 
L 268.018423 129.528086 
L 268.754748 127.824295 
L 269.491073 126.583268 
L 270.227399 125.964432 
L 270.963724 125.986961 
L 271.700049 126.551115 
L 272.436375 127.553389 
L 273.1727 128.890279 
L 274.645351 132.153891 
L 276.118001 135.513917 
L 276.854327 136.971325 
L 277.590652 138.142324 
L 278.326977 138.923419 
L 279.063303 139.25201 
L 279.799628 139.200925 
L 280.535953 138.870984 
L 283.481255 136.779067 
L 284.21758 136.567151 
L 284.953906 136.681301 
L 285.690231 137.222337 
L 286.426556 138.29108 
L 287.162882 139.988349 
L 287.899207 142.414966 
L 288.635532 145.664632 
L 289.371858 149.707368 
L 290.844508 159.629441 
L 293.053484 177.031953 
L 295.26246 194.142391 
L 296.735111 203.545225 
L 297.471436 207.249749 
L 298.207762 210.192595 
L 298.944087 212.329305 
L 299.680412 213.615422 
L 300.416738 214.006489 
L 301.153063 213.458047 
L 301.889389 211.925639 
L 302.625714 209.364808 
L 303.362039 205.731096 
L 304.098365 200.980045 
L 304.83469 195.067199 
L 305.571015 187.948099 
L 306.307341 179.578288 
L 307.779991 159.127798 
L 309.988967 122.861472 
L 312.197943 87.067809 
L 313.670594 67.462381 
L 314.406919 59.835517 
L 315.143245 54.058646 
L 315.87957 50.352137 
L 316.615895 48.674243 
L 317.352221 48.929059 
L 318.088546 51.02068 
L 318.824872 54.853199 
L 319.561197 60.330713 
L 320.297522 67.357315 
L 321.033848 75.837101 
L 322.506498 96.772602 
L 323.979149 122.369975 
L 325.4518 151.851695 
L 328.397101 213.997656 
L 329.869752 239.779018 
L 330.606077 249.803882 
L 331.342402 257.330426 
L 332.078728 261.917817 
L 332.815053 263.125224 
L 333.551378 260.511815 
L 334.287704 253.669543 
L 335.024029 242.75961 
L 335.760354 228.425505 
L 337.233005 192.119718 
L 341.650957 69.530612 
L 342.387283 54.022008 
L 343.123608 41.676576 
L 343.859933 33.12401 
L 344.596259 28.489876 
L 345.332584 27.47267 
L 346.068909 29.757391 
L 346.805235 35.029037 
L 347.54156 42.972608 
L 348.277885 53.273102 
L 349.750536 79.684856 
L 351.223187 111.744293 
L 356.377464 231.019896 
L 357.850115 255.757942 
L 358.58644 264.817403 
L 359.322766 271.202856 
L 360.059091 274.56358 
L 360.795416 274.548848 
L 361.531742 270.807938 
L 362.268067 263.023999 
L 363.004392 251.46803 
L 363.740718 236.908923 
L 365.213368 201.919778 
L 367.422344 146.528035 
L 368.15867 130.427128 
L 368.894995 116.815425 
L 369.63132 106.477547 
L 370.367646 100.198113 
L 371.103971 98.716897 
L 371.840296 101.995519 
L 372.576622 109.336583 
L 373.312947 120.021882 
L 374.785598 148.552354 
L 378.467225 228.128118 
L 379.20355 239.711824 
L 379.939875 248.175898 
L 380.676201 252.802187 
L 381.412526 253.135148 
L 382.148851 249.587703 
L 382.885177 242.752063 
L 383.621502 233.220435 
L 385.094153 208.438056 
L 388.039454 152.578658 
L 388.775779 140.756979 
L 389.512105 130.95436 
L 390.24843 123.347913 
L 390.984756 117.782436 
L 391.721081 114.092237 
L 392.457406 112.111623 
L 393.193732 111.674903 
L 393.930057 112.616383 
L 394.666382 114.770372 
L 395.402708 117.971177 
L 396.139033 122.053106 
L 397.611684 132.197566 
L 402.765961 172.344348 
L 404.238612 181.093375 
L 404.974937 184.469628 
L 405.711262 187.036009 
L 406.447588 188.684242 
L 407.183913 189.306054 
L 407.920239 188.800061 
L 408.656564 187.184345 
L 409.392889 184.578128 
L 410.129215 181.10382 
L 411.601865 172.040581 
L 413.074516 160.97392 
L 417.492468 125.54633 
L 418.965119 116.142724 
L 419.701444 112.258756 
L 420.437769 108.977489 
L 421.174095 106.342032 
L 421.91042 104.395494 
L 422.646745 103.180983 
L 423.383071 102.741608 
L 424.119396 103.120476 
L 424.855721 104.360698 
L 425.592047 106.505382 
L 426.328372 109.597623 
L 427.064698 113.62679 
L 427.064698 113.62679 
" style="fill:none;stroke:#ff0000;stroke-dasharray:5.55,2.4;stroke-dashoffset:0;stroke-width:1.5;"/>
   </g>
   <g id="patch_3">
    <path d="M 35.420312 286.918125 
L 35.420312 15.118125 
" style="fill:none;stroke:#000000;stroke-linecap:square;stroke-linejoin:miter;stroke-width:0.8;"/>
   </g>
   <g id="patch_4">
    <path d="M 445.71443 286.918125 
L 445.71443 15.118125 
" style="fill:none;stroke:#000000;stroke-linecap:square;stroke-linejoin:miter;stroke-width:0.8;"/>
   </g>
   <g id="patch_5">
    <path d="M 35.420312 286.918125 
L 445.71443 286.918125 
" style="fill:none;stroke:#000000;stroke-linecap:square;stroke-linejoin:miter;stroke-width:0.8;"/>
   </g>
   <g id="patch_6">
    <path d="M 35.420312 15.118125 
L 445.71443 15.118125 
" style="fill:none;stroke:#000000;stroke-linecap:square;stroke-linejoin:miter;stroke-width:0.8;"/>
   </g>
   <g id="text_15">
    <!-- Raw signal -->
    <defs>
     <path d="M 44.390625 34.1875 
Q 47.5625 33.109375 50.5625 29.59375 
Q 53.5625 26.078125 56.59375 19.921875 
L 66.609375 0 
L 56 0 
L 46.6875 18.703125 
Q 43.0625 26.03125 39.671875 28.421875 
Q 36.28125 30.8125 30.421875 30.8125 
L 19.671875 30.8125 
L 19.671875 0 
L 9.8125 0 
L 9.8125 72.90625 
L 32.078125 72.90625 
Q 44.578125 72.90625 50.734375 67.671875 
Q 56.890625 62.453125 56.890625 51.90625 
Q 56.890625 45.015625 53.6875 40.46875 
Q 50.484375 35.9375 44.390625 34.1875 
z
M 19.671875 64.796875 
L 19.671875 38.921875 
L 32.078125 38.921875 
Q 39.203125 38.921875 42.84375 42.21875 
Q 46.484375 45.515625 46.484375 51.90625 
Q 46.484375 58.296875 42.84375 61.546875 
Q 39.203125 64.796875 32.078125 64.796875 
z
" id="DejaVuSans-82"/>
     <path d="M 34.28125 27.484375 
Q 23.390625 27.484375 19.1875 25 
Q 14.984375 22.515625 14.984375 16.5 
Q 14.984375 11.71875 18.140625 8.90625 
Q 21.296875 6.109375 26.703125 6.109375 
Q 34.1875 6.109375 38.703125 11.40625 
Q 43.21875 16.703125 43.21875 25.484375 
L 43.21875 27.484375 
z
M 52.203125 31.203125 
L 52.203125 0 
L 43.21875 0 
L 43.21875 8.296875 
Q 40.140625 3.328125 35.546875 0.953125 
Q 30.953125 -1.421875 24.3125 -1.421875 
Q 15.921875 -1.421875 10.953125 3.296875 
Q 6 8.015625 6 15.921875 
Q 6 25.140625 12.171875 29.828125 
Q 18.359375 34.515625 30.609375 34.515625 
L 43.21875 34.515625 
L 43.21875 35.40625 
Q 43.21875 41.609375 39.140625 45 
Q 35.0625 48.390625 27.6875 48.390625 
Q 23 48.390625 18.546875 47.265625 
Q 14.109375 46.140625 10.015625 43.890625 
L 10.015625 52.203125 
Q 14.9375 54.109375 19.578125 55.046875 
Q 24.21875 56 28.609375 56 
Q 40.484375 56 46.34375 49.84375 
Q 52.203125 43.703125 52.203125 31.203125 
z
" id="DejaVuSans-97"/>
     <path d="M 4.203125 54.6875 
L 13.1875 54.6875 
L 24.421875 12.015625 
L 35.59375 54.6875 
L 46.1875 54.6875 
L 57.421875 12.015625 
L 68.609375 54.6875 
L 77.59375 54.6875 
L 63.28125 0 
L 52.6875 0 
L 40.921875 44.828125 
L 29.109375 0 
L 18.5 0 
z
" id="DejaVuSans-119"/>
     <path d="M 45.40625 27.984375 
Q 45.40625 37.75 41.375 43.109375 
Q 37.359375 48.484375 30.078125 48.484375 
Q 22.859375 48.484375 18.828125 43.109375 
Q 14.796875 37.75 14.796875 27.984375 
Q 14.796875 18.265625 18.828125 12.890625 
Q 22.859375 7.515625 30.078125 7.515625 
Q 37.359375 7.515625 41.375 12.890625 
Q 45.40625 18.265625 45.40625 27.984375 
z
M 54.390625 6.78125 
Q 54.390625 -7.171875 48.1875 -13.984375 
Q 42 -20.796875 29.203125 -20.796875 
Q 24.46875 -20.796875 20.265625 -20.09375 
Q 16.0625 -19.390625 12.109375 -17.921875 
L 12.109375 -9.1875 
Q 16.0625 -11.328125 19.921875 -12.34375 
Q 23.78125 -13.375 27.78125 -13.375 
Q 36.625 -13.375 41.015625 -8.765625 
Q 45.40625 -4.15625 45.40625 5.171875 
L 45.40625 9.625 
Q 42.625 4.78125 38.28125 2.390625 
Q 33.9375 0 27.875 0 
Q 17.828125 0 11.671875 7.65625 
Q 5.515625 15.328125 5.515625 27.984375 
Q 5.515625 40.671875 11.671875 48.328125 
Q 17.828125 56 27.875 56 
Q 33.9375 56 38.28125 53.609375 
Q 42.625 51.21875 45.40625 46.390625 
L 45.40625 54.6875 
L 54.390625 54.6875 
z
" id="DejaVuSans-103"/>
     <path d="M 54.890625 33.015625 
L 54.890625 0 
L 45.90625 0 
L 45.90625 32.71875 
Q 45.90625 40.484375 42.875 44.328125 
Q 39.84375 48.1875 33.796875 48.1875 
Q 26.515625 48.1875 22.3125 43.546875 
Q 18.109375 38.921875 18.109375 30.90625 
L 18.109375 0 
L 9.078125 0 
L 9.078125 54.6875 
L 18.109375 54.6875 
L 18.109375 46.1875 
Q 21.34375 51.125 25.703125 53.5625 
Q 30.078125 56 35.796875 56 
Q 45.21875 56 50.046875 50.171875 
Q 54.890625 44.34375 54.890625 33.015625 
z
" id="DejaVuSans-110"/>
    </defs>
    <g transform="translate(208.161746 9.118125)scale(0.12 -0.12)">
     <use xlink:href="#DejaVuSans-82"/>
     <use x="69.451172" xlink:href="#DejaVuSans-97"/>
     <use x="130.730469" xlink:href="#DejaVuSans-119"/>
     <use x="212.517578" xlink:href="#DejaVuSans-32"/>
     <use x="244.304688" xlink:href="#DejaVuSans-115"/>
     <use x="296.404297" xlink:href="#DejaVuSans-105"/>
     <use x="324.1875" xlink:href="#DejaVuSans-103"/>
     <use x="387.664062" xlink:href="#DejaVuSans-110"/>
     <use x="451.042969" xlink:href="#DejaVuSans-97"/>
     <use x="512.322266" xlink:href="#DejaVuSans-108"/>
    </g>
   </g>
   <g id="legend_1">
    <g id="patch_7">
     <path d="M 42.420312 52.474375 
L 132.257812 52.474375 
Q 134.257812 52.474375 134.257812 50.474375 
L 134.257812 22.118125 
Q 134.257812 20.118125 132.257812 20.118125 
L 42.420312 20.118125 
Q 40.420312 20.118125 40.420312 22.118125 
L 40.420312 50.474375 
Q 40.420312 52.474375 42.420312 52.474375 
z
" style="fill:#ffffff;opacity:0.8;stroke:#cccccc;stroke-linejoin:miter;"/>
    </g>
    <g id="line2d_15">
     <path d="M 44.420312 28.216563 
L 64.420312 28.216563 
" style="fill:none;stroke:#1f77b4;stroke-linecap:square;stroke-width:1.5;"/>
    </g>
    <g id="line2d_16">
     <g>
      <use style="fill:#1f77b4;stroke:#1f77b4;" x="54.420312" xlink:href="#m5ac044b559" y="28.216563"/>
     </g>
    </g>
    <g id="text_16">
     <!-- raw signal -->
     <defs>
      <path d="M 41.109375 46.296875 
Q 39.59375 47.171875 37.8125 47.578125 
Q 36.03125 48 33.890625 48 
Q 26.265625 48 22.1875 43.046875 
Q 18.109375 38.09375 18.109375 28.8125 
L 18.109375 0 
L 9.078125 0 
L 9.078125 54.6875 
L 18.109375 54.6875 
L 18.109375 46.1875 
Q 20.953125 51.171875 25.484375 53.578125 
Q 30.03125 56 36.53125 56 
Q 37.453125 56 38.578125 55.875 
Q 39.703125 55.765625 41.0625 55.515625 
z
" id="DejaVuSans-114"/>
     </defs>
     <g transform="translate(72.420312 31.716563)scale(0.1 -0.1)">
      <use xlink:href="#DejaVuSans-114"/>
      <use x="41.113281" xlink:href="#DejaVuSans-97"/>
      <use x="102.392578" xlink:href="#DejaVuSans-119"/>
      <use x="184.179688" xlink:href="#DejaVuSans-32"/>
      <use x="215.966797" xlink:href="#DejaVuSans-115"/>
      <use x="268.066406" xlink:href="#DejaVuSans-105"/>
      <use x="295.849609" xlink:href="#DejaVuSans-103"/>
      <use x="359.326172" xlink:href="#DejaVuSans-110"/>
      <use x="422.705078" xlink:href="#DejaVuSans-97"/>
      <use x="483.984375" xlink:href="#DejaVuSans-108"/>
     </g>
    </g>
    <g id="line2d_17">
     <path d="M 44.420312 42.894688 
L 64.420312 42.894688 
" style="fill:none;stroke:#ff0000;stroke-dasharray:5.55,2.4;stroke-dashoffset:0;stroke-width:1.5;"/>
    </g>
    <g id="line2d_18"/>
    <g id="text_17">
     <!-- fitted curve -->
     <defs>
      <path d="M 37.109375 75.984375 
L 37.109375 68.5 
L 28.515625 68.5 
Q 23.6875 68.5 21.796875 66.546875 
Q 19.921875 64.59375 19.921875 59.515625 
L 19.921875 54.6875 
L 34.71875 54.6875 
L 34.71875 47.703125 
L 19.921875 47.703125 
L 19.921875 0 
L 10.890625 0 
L 10.890625 47.703125 
L 2.296875 47.703125 
L 2.296875 54.6875 
L 10.890625 54.6875 
L 10.890625 58.5 
Q 10.890625 67.625 15.140625 71.796875 
Q 19.390625 75.984375 28.609375 75.984375 
z
" id="DejaVuSans-102"/>
      <path d="M 48.78125 52.59375 
L 48.78125 44.1875 
Q 44.96875 46.296875 41.140625 47.34375 
Q 37.3125 48.390625 33.40625 48.390625 
Q 24.65625 48.390625 19.8125 42.84375 
Q 14.984375 37.3125 14.984375 27.296875 
Q 14.984375 17.28125 19.8125 11.734375 
Q 24.65625 6.203125 33.40625 6.203125 
Q 37.3125 6.203125 41.140625 7.25 
Q 44.96875 8.296875 48.78125 10.40625 
L 48.78125 2.09375 
Q 45.015625 0.34375 40.984375 -0.53125 
Q 36.96875 -1.421875 32.421875 -1.421875 
Q 20.0625 -1.421875 12.78125 6.34375 
Q 5.515625 14.109375 5.515625 27.296875 
Q 5.515625 40.671875 12.859375 48.328125 
Q 20.21875 56 33.015625 56 
Q 37.15625 56 41.109375 55.140625 
Q 45.0625 54.296875 48.78125 52.59375 
z
" id="DejaVuSans-99"/>
      <path d="M 2.984375 54.6875 
L 12.5 54.6875 
L 29.59375 8.796875 
L 46.6875 54.6875 
L 56.203125 54.6875 
L 35.6875 0 
L 23.484375 0 
z
" id="DejaVuSans-118"/>
     </defs>
     <g transform="translate(72.420312 46.394688)scale(0.1 -0.1)">
      <use xlink:href="#DejaVuSans-102"/>
      <use x="35.205078" xlink:href="#DejaVuSans-105"/>
      <use x="62.988281" xlink:href="#DejaVuSans-116"/>
      <use x="102.197266" xlink:href="#DejaVuSans-116"/>
      <use x="141.40625" xlink:href="#DejaVuSans-101"/>
      <use x="202.929688" xlink:href="#DejaVuSans-100"/>
      <use x="266.40625" xlink:href="#DejaVuSans-32"/>
      <use x="298.193359" xlink:href="#DejaVuSans-99"/>
      <use x="353.173828" xlink:href="#DejaVuSans-117"/>
      <use x="416.552734" xlink:href="#DejaVuSans-114"/>
      <use x="457.666016" xlink:href="#DejaVuSans-118"/>
      <use x="516.845703" xlink:href="#DejaVuSans-101"/>
     </g>
    </g>
   </g>
  </g>
  <g id="axes_2">
   <g id="patch_8">
    <path d="M 527.773254 286.918125 
L 938.067371 286.918125 
L 938.067371 15.118125 
L 527.773254 15.118125 
z
" style="fill:#ffffff;"/>
   </g>
   <g id="matplotlib.axis_3">
    <g id="xtick_7">
     <g id="line2d_19">
      <g>
       <use style="stroke:#000000;stroke-width:0.8;" x="538.527849" xlink:href="#m13dfc8785e" y="286.918125"/>
      </g>
     </g>
     <g id="text_18">
      <!-- 40.0 -->
      <g transform="translate(527.395037 301.516563)scale(0.1 -0.1)">
       <use xlink:href="#DejaVuSans-52"/>
       <use x="63.623047" xlink:href="#DejaVuSans-48"/>
       <use x="127.246094" xlink:href="#DejaVuSans-46"/>
       <use x="159.033203" xlink:href="#DejaVuSans-48"/>
      </g>
     </g>
    </g>
    <g id="xtick_8">
     <g id="line2d_20">
      <g>
       <use style="stroke:#000000;stroke-width:0.8;" x="613.276044" xlink:href="#m13dfc8785e" y="286.918125"/>
      </g>
     </g>
     <g id="text_19">
      <!-- 40.2 -->
      <g transform="translate(602.143231 301.516563)scale(0.1 -0.1)">
       <use xlink:href="#DejaVuSans-52"/>
       <use x="63.623047" xlink:href="#DejaVuSans-48"/>
       <use x="127.246094" xlink:href="#DejaVuSans-46"/>
       <use x="159.033203" xlink:href="#DejaVuSans-50"/>
      </g>
     </g>
    </g>
    <g id="xtick_9">
     <g id="line2d_21">
      <g>
       <use style="stroke:#000000;stroke-width:0.8;" x="688.024238" xlink:href="#m13dfc8785e" y="286.918125"/>
      </g>
     </g>
     <g id="text_20">
      <!-- 40.4 -->
      <g transform="translate(676.891426 301.516563)scale(0.1 -0.1)">
       <use xlink:href="#DejaVuSans-52"/>
       <use x="63.623047" xlink:href="#DejaVuSans-48"/>
       <use x="127.246094" xlink:href="#DejaVuSans-46"/>
       <use x="159.033203" xlink:href="#DejaVuSans-52"/>
      </g>
     </g>
    </g>
    <g id="xtick_10">
     <g id="line2d_22">
      <g>
       <use style="stroke:#000000;stroke-width:0.8;" x="762.772433" xlink:href="#m13dfc8785e" y="286.918125"/>
      </g>
     </g>
     <g id="text_21">
      <!-- 40.6 -->
      <g transform="translate(751.63962 301.516563)scale(0.1 -0.1)">
       <use xlink:href="#DejaVuSans-52"/>
       <use x="63.623047" xlink:href="#DejaVuSans-48"/>
       <use x="127.246094" xlink:href="#DejaVuSans-46"/>
       <use x="159.033203" xlink:href="#DejaVuSans-54"/>
      </g>
     </g>
    </g>
    <g id="xtick_11">
     <g id="line2d_23">
      <g>
       <use style="stroke:#000000;stroke-width:0.8;" x="837.520627" xlink:href="#m13dfc8785e" y="286.918125"/>
      </g>
     </g>
     <g id="text_22">
      <!-- 40.8 -->
      <g transform="translate(826.387815 301.516563)scale(0.1 -0.1)">
       <use xlink:href="#DejaVuSans-52"/>
       <use x="63.623047" xlink:href="#DejaVuSans-48"/>
       <use x="127.246094" xlink:href="#DejaVuSans-46"/>
       <use x="159.033203" xlink:href="#DejaVuSans-56"/>
      </g>
     </g>
    </g>
    <g id="xtick_12">
     <g id="line2d_24">
      <g>
       <use style="stroke:#000000;stroke-width:0.8;" x="912.268822" xlink:href="#m13dfc8785e" y="286.918125"/>
      </g>
     </g>
     <g id="text_23">
      <!-- 41.0 -->
      <g transform="translate(901.136009 301.516563)scale(0.1 -0.1)">
       <use xlink:href="#DejaVuSans-52"/>
       <use x="63.623047" xlink:href="#DejaVuSans-49"/>
       <use x="127.246094" xlink:href="#DejaVuSans-46"/>
       <use x="159.033203" xlink:href="#DejaVuSans-48"/>
      </g>
     </g>
    </g>
    <g id="text_24">
     <!-- Time (s) -->
     <g transform="translate(712.4375 315.194688)scale(0.1 -0.1)">
      <use xlink:href="#DejaVuSans-84"/>
      <use x="61.037109" xlink:href="#DejaVuSans-105"/>
      <use x="88.820312" xlink:href="#DejaVuSans-109"/>
      <use x="186.232422" xlink:href="#DejaVuSans-101"/>
      <use x="247.755859" xlink:href="#DejaVuSans-32"/>
      <use x="279.542969" xlink:href="#DejaVuSans-40"/>
      <use x="318.556641" xlink:href="#DejaVuSans-115"/>
      <use x="370.65625" xlink:href="#DejaVuSans-41"/>
     </g>
    </g>
   </g>
   <g id="matplotlib.axis_4">
    <g id="ytick_7">
     <g id="line2d_25">
      <g>
       <use style="stroke:#000000;stroke-width:0.8;" x="527.773254" xlink:href="#m409866cba1" y="278.582421"/>
      </g>
     </g>
     <g id="text_25">
      <!-- −3 -->
      <g transform="translate(506.031066 282.38164)scale(0.1 -0.1)">
       <use xlink:href="#DejaVuSans-8722"/>
       <use x="83.789062" xlink:href="#DejaVuSans-51"/>
      </g>
     </g>
    </g>
    <g id="ytick_8">
     <g id="line2d_26">
      <g>
       <use style="stroke:#000000;stroke-width:0.8;" x="527.773254" xlink:href="#m409866cba1" y="229.826369"/>
      </g>
     </g>
     <g id="text_26">
      <!-- −2 -->
      <g transform="translate(506.031066 233.625588)scale(0.1 -0.1)">
       <use xlink:href="#DejaVuSans-8722"/>
       <use x="83.789062" xlink:href="#DejaVuSans-50"/>
      </g>
     </g>
    </g>
    <g id="ytick_9">
     <g id="line2d_27">
      <g>
       <use style="stroke:#000000;stroke-width:0.8;" x="527.773254" xlink:href="#m409866cba1" y="181.070316"/>
      </g>
     </g>
     <g id="text_27">
      <!-- −1 -->
      <g transform="translate(506.031066 184.869535)scale(0.1 -0.1)">
       <use xlink:href="#DejaVuSans-8722"/>
       <use x="83.789062" xlink:href="#DejaVuSans-49"/>
      </g>
     </g>
    </g>
    <g id="ytick_10">
     <g id="line2d_28">
      <g>
       <use style="stroke:#000000;stroke-width:0.8;" x="527.773254" xlink:href="#m409866cba1" y="132.314264"/>
      </g>
     </g>
     <g id="text_28">
      <!-- 0 -->
      <g transform="translate(514.410754 136.113483)scale(0.1 -0.1)">
       <use xlink:href="#DejaVuSans-48"/>
      </g>
     </g>
    </g>
    <g id="ytick_11">
     <g id="line2d_29">
      <g>
       <use style="stroke:#000000;stroke-width:0.8;" x="527.773254" xlink:href="#m409866cba1" y="83.558211"/>
      </g>
     </g>
     <g id="text_29">
      <!-- 1 -->
      <g transform="translate(514.410754 87.35743)scale(0.1 -0.1)">
       <use xlink:href="#DejaVuSans-49"/>
      </g>
     </g>
    </g>
    <g id="ytick_12">
     <g id="line2d_30">
      <g>
       <use style="stroke:#000000;stroke-width:0.8;" x="527.773254" xlink:href="#m409866cba1" y="34.802159"/>
      </g>
     </g>
     <g id="text_30">
      <!-- 2 -->
      <g transform="translate(514.410754 38.601378)scale(0.1 -0.1)">
       <use xlink:href="#DejaVuSans-50"/>
      </g>
     </g>
    </g>
    <g id="text_31">
     <!-- Amplitude -->
     <g transform="translate(499.951379 176.640781)rotate(-90)scale(0.1 -0.1)">
      <use xlink:href="#DejaVuSans-65"/>
      <use x="68.408203" xlink:href="#DejaVuSans-109"/>
      <use x="165.820312" xlink:href="#DejaVuSans-112"/>
      <use x="229.296875" xlink:href="#DejaVuSans-108"/>
      <use x="257.080078" xlink:href="#DejaVuSans-105"/>
      <use x="284.863281" xlink:href="#DejaVuSans-116"/>
      <use x="324.072266" xlink:href="#DejaVuSans-117"/>
      <use x="387.451172" xlink:href="#DejaVuSans-100"/>
      <use x="450.927734" xlink:href="#DejaVuSans-101"/>
     </g>
    </g>
   </g>
   <g id="line2d_31">
    <path clip-path="url(#p8794c769be)" d="M 546.422986 174.701095 
L 547.170471 178.474952 
L 547.917955 180.834893 
L 548.665439 181.523659 
L 549.412923 180.539638 
L 550.160408 178.098471 
L 550.907892 174.422707 
L 551.655376 169.734897 
L 553.150345 158.213337 
L 556.140282 132.817856 
L 557.63525 122.353475 
L 559.130219 114.362177 
L 559.877703 111.256618 
L 560.625187 108.723887 
L 561.372672 106.748558 
L 562.120156 105.315206 
L 562.86764 104.408407 
L 563.615125 104.012735 
L 564.362609 104.112765 
L 565.110093 104.693073 
L 565.857577 105.738234 
L 566.605062 107.231492 
L 567.352546 109.132901 
L 568.847514 113.920939 
L 570.342483 119.620747 
L 574.079904 134.694649 
L 575.574873 139.788121 
L 577.069842 143.717737 
L 577.817326 145.227455 
L 578.56481 146.43949 
L 579.312294 147.358127 
L 580.059779 147.987648 
L 580.807263 148.332335 
L 581.554747 148.396473 
L 582.302231 148.184344 
L 583.049716 147.700231 
L 583.7972 146.948418 
L 584.544684 145.933187 
L 585.292169 144.658822 
L 586.787137 141.357657 
L 588.282106 137.148562 
L 589.777074 132.164241 
L 592.019527 123.524878 
L 594.26198 113.888684 
L 598.746885 94.024181 
L 600.241854 88.151217 
L 601.736823 83.091037 
L 603.231791 79.10675 
L 603.979275 77.600287 
L 604.72676 76.460156 
L 605.474244 75.695152 
L 606.221728 75.294719 
L 606.969212 75.247687 
L 607.716697 75.542885 
L 608.464181 76.169142 
L 609.211665 77.115288 
L 609.95915 78.370152 
L 610.706634 79.922564 
L 612.201602 83.875347 
L 613.696571 88.877419 
L 615.939024 97.79938 
L 619.676445 113.441847 
L 621.171414 118.908754 
L 622.666382 123.378807 
L 623.413866 125.128033 
L 624.161351 126.5236 
L 624.908835 127.574616 
L 625.656319 128.290961 
L 626.403804 128.682512 
L 627.151288 128.759149 
L 627.898772 128.530752 
L 628.646256 128.0072 
L 629.393741 127.198371 
L 630.141225 126.114145 
L 630.888709 124.764401 
L 632.383678 121.311093 
L 635.373615 113.358271 
L 636.121099 111.819327 
L 636.868583 110.696507 
L 637.616068 110.108021 
L 638.363552 110.172081 
L 639.111036 111.006896 
L 639.85852 112.730675 
L 640.606005 115.46163 
L 641.353489 119.317971 
L 642.100973 124.406588 
L 643.595942 137.752262 
L 648.080847 184.290537 
L 648.828332 190.234207 
L 649.575816 194.958802 
L 650.3233 198.201389 
L 651.070785 199.714332 
L 651.818269 199.516447 
L 652.565753 197.852726 
L 653.313237 194.975336 
L 654.060722 191.136446 
L 655.55569 181.582842 
L 657.798143 166.345397 
L 658.545627 162.033045 
L 659.293112 158.524373 
L 660.040596 156.071549 
L 660.78808 154.911646 
L 661.535564 155.018912 
L 662.283049 156.144515 
L 663.030533 158.032546 
L 664.525501 163.072257 
L 666.02047 168.090775 
L 666.767954 169.952315 
L 667.515439 171.04083 
L 668.262923 171.100412 
L 669.010407 169.875152 
L 669.757891 167.126753 
L 670.505376 162.923535 
L 672.000344 151.475064 
L 674.990281 125.840226 
L 675.737766 120.825758 
L 676.48525 117.042577 
L 677.232734 114.827476 
L 677.980218 114.517251 
L 678.727703 116.448664 
L 679.475187 120.806283 
L 680.222671 127.270133 
L 680.970156 135.415831 
L 682.465124 155.055233 
L 684.707577 186.518593 
L 686.202545 203.87919 
L 686.95003 210.201845 
L 687.697514 214.386921 
L 688.444998 216.159021 
L 689.192483 215.736476 
L 689.939967 213.43978 
L 690.687451 209.589427 
L 691.434935 204.505913 
L 692.929904 191.921376 
L 695.172357 171.808215 
L 695.919841 166.056112 
L 696.667325 161.314307 
L 697.41481 157.903295 
L 698.162294 156.127116 
L 698.909778 156.003475 
L 699.657262 157.307148 
L 700.404747 159.805209 
L 701.152231 163.264734 
L 702.647199 172.136472 
L 704.889652 186.831923 
L 705.637137 191.168798 
L 706.384621 194.83666 
L 707.132105 197.612835 
L 707.879589 199.453012 
L 708.627074 200.46419 
L 709.374558 200.758165 
L 710.122042 200.446732 
L 710.869526 199.641684 
L 711.617011 198.454816 
L 713.111979 195.382803 
L 714.606948 192.12505 
L 715.354432 190.706008 
L 716.101916 189.575915 
L 716.849401 188.846559 
L 717.596885 188.59057 
L 718.344369 188.75084 
L 719.091853 189.243428 
L 719.839338 189.984388 
L 723.576759 194.476762 
L 724.324243 194.945147 
L 725.071728 195.074302 
L 725.819212 194.783061 
L 726.566696 194.038603 
L 727.31418 192.849108 
L 728.061665 191.224054 
L 728.809149 189.17292 
L 729.556633 186.705185 
L 731.051602 180.557828 
L 732.54657 172.857811 
L 734.041539 163.680965 
L 735.536507 153.127677 
L 739.273929 125.582402 
L 740.768897 116.857065 
L 741.516382 113.514162 
L 742.263866 111.027256 
L 743.01135 109.528461 
L 743.758834 109.149877 
L 744.506319 109.955342 
L 745.253803 111.782583 
L 746.001287 114.422574 
L 747.496256 121.304702 
L 749.738709 132.497864 
L 750.486193 135.624805 
L 751.233677 138.101313 
L 751.981161 139.718377 
L 752.728646 140.342336 
L 753.47613 140.08909 
L 754.223614 139.126135 
L 754.971099 137.620966 
L 756.466067 133.653975 
L 757.961036 129.528086 
L 758.70852 127.824295 
L 759.456004 126.583268 
L 760.203488 125.964432 
L 760.950973 125.986961 
L 761.698457 126.551115 
L 762.445941 127.553389 
L 763.193426 128.890279 
L 764.688394 132.153891 
L 766.183363 135.513917 
L 766.930847 136.971325 
L 767.678331 138.142324 
L 768.425815 138.923419 
L 769.1733 139.25201 
L 769.920784 139.200925 
L 770.668268 138.870984 
L 773.658205 136.779067 
L 774.40569 136.567151 
L 775.153174 136.681301 
L 775.900658 137.222337 
L 776.648142 138.29108 
L 777.395627 139.988349 
L 778.143111 142.414966 
L 778.890595 145.664632 
L 779.63808 149.707368 
L 781.133048 159.629441 
L 783.375501 177.031953 
L 785.617954 194.142391 
L 787.112922 203.545225 
L 787.860407 207.249749 
L 788.607891 210.192595 
L 789.355375 212.329305 
L 790.102859 213.615422 
L 790.850344 214.006489 
L 791.597828 213.458047 
L 792.345312 211.925639 
L 793.092797 209.364808 
L 793.840281 205.731096 
L 794.587765 200.980045 
L 795.335249 195.067199 
L 796.082734 187.948099 
L 796.830218 179.578288 
L 798.325186 159.127798 
L 800.567639 122.861472 
L 802.810092 87.067809 
L 804.305061 67.462381 
L 805.052545 59.835517 
L 805.800029 54.058646 
L 806.547513 50.352137 
L 807.294998 48.674243 
L 808.042482 48.929059 
L 808.789966 51.02068 
L 809.537451 54.853199 
L 810.284935 60.330713 
L 811.032419 67.357315 
L 811.779903 75.837101 
L 813.274872 96.772602 
L 814.76984 122.369975 
L 816.264809 151.851695 
L 819.254746 213.997656 
L 820.749715 239.779018 
L 821.497199 249.803882 
L 822.244683 257.330426 
L 822.992167 261.917817 
L 823.739652 263.125224 
L 824.487136 260.511815 
L 825.23462 253.669543 
L 825.982105 242.75961 
L 826.729589 228.425505 
L 828.224557 192.119718 
L 832.709463 69.530612 
L 833.456947 54.022008 
L 834.204432 41.676576 
L 834.951916 33.12401 
L 835.6994 28.489876 
L 836.446884 27.47267 
L 837.194369 29.757391 
L 837.941853 35.029037 
L 838.689337 42.972608 
L 839.436821 53.273102 
L 840.93179 79.684856 
L 842.426759 111.744293 
L 847.659148 231.019896 
L 849.154117 255.757942 
L 849.901601 264.817403 
L 850.649086 271.202856 
L 851.39657 274.56358 
L 852.144054 274.548848 
L 852.891538 270.807938 
L 853.639023 263.023999 
L 854.386507 251.46803 
L 855.133991 236.908923 
L 856.62896 201.919778 
L 858.871413 146.528035 
L 859.618897 130.427128 
L 860.366381 116.815425 
L 861.113865 106.477547 
L 861.86135 100.198113 
L 862.608834 98.716897 
L 863.356318 101.995519 
L 864.103802 109.336583 
L 864.851287 120.021882 
L 866.346255 148.552354 
L 869.336192 214.142986 
L 870.083677 228.128118 
L 870.831161 239.711824 
L 871.578645 248.175898 
L 872.326129 252.802187 
L 873.073614 253.135148 
L 873.821098 249.587703 
L 874.568582 242.752063 
L 875.316067 233.220435 
L 876.811035 208.438056 
L 879.800972 152.578658 
L 880.548456 140.756979 
L 881.295941 130.95436 
L 882.043425 123.347913 
L 882.790909 117.782436 
L 883.538394 114.092237 
L 884.285878 112.111623 
L 885.033362 111.674903 
L 885.780846 112.616383 
L 886.528331 114.770372 
L 887.275815 117.971177 
L 888.023299 122.053106 
L 889.518268 132.197566 
L 894.750658 172.344348 
L 896.245626 181.093375 
L 896.993111 184.469628 
L 897.740595 187.036009 
L 898.488079 188.684242 
L 899.235563 189.306054 
L 899.983048 188.800061 
L 900.730532 187.184345 
L 901.478016 184.578128 
L 902.2255 181.10382 
L 903.720469 172.040581 
L 905.215438 160.97392 
L 909.700343 125.54633 
L 911.195312 116.142724 
L 911.942796 112.258756 
L 912.69028 108.977489 
L 913.437765 106.342032 
L 914.185249 104.395494 
L 914.932733 103.180983 
L 915.680217 102.741608 
L 916.427702 103.120476 
L 917.175186 104.360698 
L 917.92267 106.505382 
L 918.670154 109.597623 
L 919.417639 113.62679 
L 919.417639 113.62679 
" style="fill:none;stroke:#ff0000;stroke-dasharray:5.55,2.4;stroke-dashoffset:0;stroke-width:1.5;"/>
   </g>
   <g id="line2d_32">
    <path clip-path="url(#p8794c769be)" d="M 546.826663 176.898324 
L 554.301707 148.3079 
L 561.776752 105.90739 
L 569.251796 115.392529 
L 576.726841 142.924152 
L 584.201885 146.431204 
L 591.67693 124.920446 
L 599.151975 92.367491 
L 606.627019 75.226071 
L 614.102064 90.389682 
L 621.577108 120.235595 
L 629.052153 127.602757 
L 636.527197 111.150143 
L 644.002242 141.897179 
L 651.477287 199.803721 
L 658.952331 160.008212 
L 666.427376 169.184604 
L 673.90242 134.644966 
L 681.377465 140.410861 
L 688.852509 216.180284 
L 696.327554 163.323997 
L 703.802599 179.809578 
L 711.277643 199.033853 
L 718.752688 188.984098 
L 726.227732 194.431911 
L 733.702777 165.885933 
L 741.177821 114.930148 
L 748.652866 127.225315 
L 756.127911 134.613132 
L 763.602955 129.727342 
L 771.078 138.608143 
L 778.553044 144.091746 
L 786.028089 196.946651 
L 793.503133 207.505721 
L 800.978178 116.034638 
L 808.453223 49.85718 
L 815.928267 144.922666 
L 823.403312 263.028389 
L 830.878356 116.759016 
L 838.353401 39.092158 
L 845.828445 192.176074 
L 853.30349 267.026407 
L 860.778535 110.66016 
L 868.253579 191.093653 
L 875.728624 227.020789 
L 883.203668 115.523461 
L 890.678713 141.199225 
L 898.153757 188.067468 
L 905.628802 157.69153 
L 913.103847 107.436782 
" style="fill:none;stroke:#008000;stroke-linecap:square;stroke-width:1.5;"/>
    <defs>
     <path d="M 0 3 
C 0.795609 3 1.55874 2.683901 2.12132 2.12132 
C 2.683901 1.55874 3 0.795609 3 0 
C 3 -0.795609 2.683901 -1.55874 2.12132 -2.12132 
C 1.55874 -2.683901 0.795609 -3 0 -3 
C -0.795609 -3 -1.55874 -2.683901 -2.12132 -2.12132 
C -2.683901 -1.55874 -3 -0.795609 -3 0 
C -3 0.795609 -2.683901 1.55874 -2.12132 2.12132 
C -1.55874 2.683901 -0.795609 3 0 3 
z
" id="m3c1dc13f53" style="stroke:#008000;"/>
    </defs>
    <g clip-path="url(#p8794c769be)">
     <use style="fill:#008000;stroke:#008000;" x="546.826663" xlink:href="#m3c1dc13f53" y="176.898324"/>
     <use style="fill:#008000;stroke:#008000;" x="554.301707" xlink:href="#m3c1dc13f53" y="148.3079"/>
     <use style="fill:#008000;stroke:#008000;" x="561.776752" xlink:href="#m3c1dc13f53" y="105.90739"/>
     <use style="fill:#008000;stroke:#008000;" x="569.251796" xlink:href="#m3c1dc13f53" y="115.392529"/>
     <use style="fill:#008000;stroke:#008000;" x="576.726841" xlink:href="#m3c1dc13f53" y="142.924152"/>
     <use style="fill:#008000;stroke:#008000;" x="584.201885" xlink:href="#m3c1dc13f53" y="146.431204"/>
     <use style="fill:#008000;stroke:#008000;" x="591.67693" xlink:href="#m3c1dc13f53" y="124.920446"/>
     <use style="fill:#008000;stroke:#008000;" x="599.151975" xlink:href="#m3c1dc13f53" y="92.367491"/>
     <use style="fill:#008000;stroke:#008000;" x="606.627019" xlink:href="#m3c1dc13f53" y="75.226071"/>
     <use style="fill:#008000;stroke:#008000;" x="614.102064" xlink:href="#m3c1dc13f53" y="90.389682"/>
     <use style="fill:#008000;stroke:#008000;" x="621.577108" xlink:href="#m3c1dc13f53" y="120.235595"/>
     <use style="fill:#008000;stroke:#008000;" x="629.052153" xlink:href="#m3c1dc13f53" y="127.602757"/>
     <use style="fill:#008000;stroke:#008000;" x="636.527197" xlink:href="#m3c1dc13f53" y="111.150143"/>
     <use style="fill:#008000;stroke:#008000;" x="644.002242" xlink:href="#m3c1dc13f53" y="141.897179"/>
     <use style="fill:#008000;stroke:#008000;" x="651.477287" xlink:href="#m3c1dc13f53" y="199.803721"/>
     <use style="fill:#008000;stroke:#008000;" x="658.952331" xlink:href="#m3c1dc13f53" y="160.008212"/>
     <use style="fill:#008000;stroke:#008000;" x="666.427376" xlink:href="#m3c1dc13f53" y="169.184604"/>
     <use style="fill:#008000;stroke:#008000;" x="673.90242" xlink:href="#m3c1dc13f53" y="134.644966"/>
     <use style="fill:#008000;stroke:#008000;" x="681.377465" xlink:href="#m3c1dc13f53" y="140.410861"/>
     <use style="fill:#008000;stroke:#008000;" x="688.852509" xlink:href="#m3c1dc13f53" y="216.180284"/>
     <use style="fill:#008000;stroke:#008000;" x="696.327554" xlink:href="#m3c1dc13f53" y="163.323997"/>
     <use style="fill:#008000;stroke:#008000;" x="703.802599" xlink:href="#m3c1dc13f53" y="179.809578"/>
     <use style="fill:#008000;stroke:#008000;" x="711.277643" xlink:href="#m3c1dc13f53" y="199.033853"/>
     <use style="fill:#008000;stroke:#008000;" x="718.752688" xlink:href="#m3c1dc13f53" y="188.984098"/>
     <use style="fill:#008000;stroke:#008000;" x="726.227732" xlink:href="#m3c1dc13f53" y="194.431911"/>
     <use style="fill:#008000;stroke:#008000;" x="733.702777" xlink:href="#m3c1dc13f53" y="165.885933"/>
     <use style="fill:#008000;stroke:#008000;" x="741.177821" xlink:href="#m3c1dc13f53" y="114.930148"/>
     <use style="fill:#008000;stroke:#008000;" x="748.652866" xlink:href="#m3c1dc13f53" y="127.225315"/>
     <use style="fill:#008000;stroke:#008000;" x="756.127911" xlink:href="#m3c1dc13f53" y="134.613132"/>
     <use style="fill:#008000;stroke:#008000;" x="763.602955" xlink:href="#m3c1dc13f53" y="129.727342"/>
     <use style="fill:#008000;stroke:#008000;" x="771.078" xlink:href="#m3c1dc13f53" y="138.608143"/>
     <use style="fill:#008000;stroke:#008000;" x="778.553044" xlink:href="#m3c1dc13f53" y="144.091746"/>
     <use style="fill:#008000;stroke:#008000;" x="786.028089" xlink:href="#m3c1dc13f53" y="196.946651"/>
     <use style="fill:#008000;stroke:#008000;" x="793.503133" xlink:href="#m3c1dc13f53" y="207.505721"/>
     <use style="fill:#008000;stroke:#008000;" x="800.978178" xlink:href="#m3c1dc13f53" y="116.034638"/>
     <use style="fill:#008000;stroke:#008000;" x="808.453223" xlink:href="#m3c1dc13f53" y="49.85718"/>
     <use style="fill:#008000;stroke:#008000;" x="815.928267" xlink:href="#m3c1dc13f53" y="144.922666"/>
     <use style="fill:#008000;stroke:#008000;" x="823.403312" xlink:href="#m3c1dc13f53" y="263.028389"/>
     <use style="fill:#008000;stroke:#008000;" x="830.878356" xlink:href="#m3c1dc13f53" y="116.759016"/>
     <use style="fill:#008000;stroke:#008000;" x="838.353401" xlink:href="#m3c1dc13f53" y="39.092158"/>
     <use style="fill:#008000;stroke:#008000;" x="845.828445" xlink:href="#m3c1dc13f53" y="192.176074"/>
     <use style="fill:#008000;stroke:#008000;" x="853.30349" xlink:href="#m3c1dc13f53" y="267.026407"/>
     <use style="fill:#008000;stroke:#008000;" x="860.778535" xlink:href="#m3c1dc13f53" y="110.66016"/>
     <use style="fill:#008000;stroke:#008000;" x="868.253579" xlink:href="#m3c1dc13f53" y="191.093653"/>
     <use style="fill:#008000;stroke:#008000;" x="875.728624" xlink:href="#m3c1dc13f53" y="227.020789"/>
     <use style="fill:#008000;stroke:#008000;" x="883.203668" xlink:href="#m3c1dc13f53" y="115.523461"/>
     <use style="fill:#008000;stroke:#008000;" x="890.678713" xlink:href="#m3c1dc13f53" y="141.199225"/>
     <use style="fill:#008000;stroke:#008000;" x="898.153757" xlink:href="#m3c1dc13f53" y="188.067468"/>
     <use style="fill:#008000;stroke:#008000;" x="905.628802" xlink:href="#m3c1dc13f53" y="157.69153"/>
     <use style="fill:#008000;stroke:#008000;" x="913.103847" xlink:href="#m3c1dc13f53" y="107.436782"/>
    </g>
   </g>
   <g id="patch_9">
    <path d="M 527.773254 286.918125 
L 527.773254 15.118125 
" style="fill:none;stroke:#000000;stroke-linecap:square;stroke-linejoin:miter;stroke-width:0.8;"/>
   </g>
   <g id="patch_10">
    <path d="M 938.067371 286.918125 
L 938.067371 15.118125 
" style="fill:none;stroke:#000000;stroke-linecap:square;stroke-linejoin:miter;stroke-width:0.8;"/>
   </g>
   <g id="patch_11">
    <path d="M 527.773254 286.918125 
L 938.067371 286.918125 
" style="fill:none;stroke:#000000;stroke-linecap:square;stroke-linejoin:miter;stroke-width:0.8;"/>
   </g>
   <g id="patch_12">
    <path d="M 527.773254 15.118125 
L 938.067371 15.118125 
" style="fill:none;stroke:#000000;stroke-linecap:square;stroke-linejoin:miter;stroke-width:0.8;"/>
   </g>
   <g id="text_32">
    <!-- Resampled signal -->
    <g transform="translate(679.784688 9.118125)scale(0.12 -0.12)">
     <use xlink:href="#DejaVuSans-82"/>
     <use x="69.419922" xlink:href="#DejaVuSans-101"/>
     <use x="130.943359" xlink:href="#DejaVuSans-115"/>
     <use x="183.042969" xlink:href="#DejaVuSans-97"/>
     <use x="244.322266" xlink:href="#DejaVuSans-109"/>
     <use x="341.734375" xlink:href="#DejaVuSans-112"/>
     <use x="405.210938" xlink:href="#DejaVuSans-108"/>
     <use x="432.994141" xlink:href="#DejaVuSans-101"/>
     <use x="494.517578" xlink:href="#DejaVuSans-100"/>
     <use x="557.994141" xlink:href="#DejaVuSans-32"/>
     <use x="589.78125" xlink:href="#DejaVuSans-115"/>
     <use x="641.880859" xlink:href="#DejaVuSans-105"/>
     <use x="669.664062" xlink:href="#DejaVuSans-103"/>
     <use x="733.140625" xlink:href="#DejaVuSans-110"/>
     <use x="796.519531" xlink:href="#DejaVuSans-97"/>
     <use x="857.798828" xlink:href="#DejaVuSans-108"/>
    </g>
   </g>
   <g id="legend_2">
    <g id="patch_13">
     <path d="M 534.773254 52.474375 
L 652.498254 52.474375 
Q 654.498254 52.474375 654.498254 50.474375 
L 654.498254 22.118125 
Q 654.498254 20.118125 652.498254 20.118125 
L 534.773254 20.118125 
Q 532.773254 20.118125 532.773254 22.118125 
L 532.773254 50.474375 
Q 532.773254 52.474375 534.773254 52.474375 
z
" style="fill:#ffffff;opacity:0.8;stroke:#cccccc;stroke-linejoin:miter;"/>
    </g>
    <g id="line2d_33">
     <path d="M 536.773254 28.216563 
L 556.773254 28.216563 
" style="fill:none;stroke:#ff0000;stroke-dasharray:5.55,2.4;stroke-dashoffset:0;stroke-width:1.5;"/>
    </g>
    <g id="line2d_34"/>
    <g id="text_33">
     <!-- fitted curve -->
     <g transform="translate(564.773254 31.716563)scale(0.1 -0.1)">
      <use xlink:href="#DejaVuSans-102"/>
      <use x="35.205078" xlink:href="#DejaVuSans-105"/>
      <use x="62.988281" xlink:href="#DejaVuSans-116"/>
      <use x="102.197266" xlink:href="#DejaVuSans-116"/>
      <use x="141.40625" xlink:href="#DejaVuSans-101"/>
      <use x="202.929688" xlink:href="#DejaVuSans-100"/>
      <use x="266.40625" xlink:href="#DejaVuSans-32"/>
      <use x="298.193359" xlink:href="#DejaVuSans-99"/>
      <use x="353.173828" xlink:href="#DejaVuSans-117"/>
      <use x="416.552734" xlink:href="#DejaVuSans-114"/>
      <use x="457.666016" xlink:href="#DejaVuSans-118"/>
      <use x="516.845703" xlink:href="#DejaVuSans-101"/>
     </g>
    </g>
    <g id="line2d_35">
     <path d="M 536.773254 42.894688 
L 556.773254 42.894688 
" style="fill:none;stroke:#008000;stroke-linecap:square;stroke-width:1.5;"/>
    </g>
    <g id="line2d_36">
     <g>
      <use style="fill:#008000;stroke:#008000;" x="546.773254" xlink:href="#m3c1dc13f53" y="42.894688"/>
     </g>
    </g>
    <g id="text_34">
     <!-- resampled signal -->
     <g transform="translate(564.773254 46.394688)scale(0.1 -0.1)">
      <use xlink:href="#DejaVuSans-114"/>
      <use x="41.082031" xlink:href="#DejaVuSans-101"/>
      <use x="102.605469" xlink:href="#DejaVuSans-115"/>
      <use x="154.705078" xlink:href="#DejaVuSans-97"/>
      <use x="215.984375" xlink:href="#DejaVuSans-109"/>
      <use x="313.396484" xlink:href="#DejaVuSans-112"/>
      <use x="376.873047" xlink:href="#DejaVuSans-108"/>
      <use x="404.65625" xlink:href="#DejaVuSans-101"/>
      <use x="466.179688" xlink:href="#DejaVuSans-100"/>
      <use x="529.65625" xlink:href="#DejaVuSans-32"/>
      <use x="561.443359" xlink:href="#DejaVuSans-115"/>
      <use x="613.542969" xlink:href="#DejaVuSans-105"/>
      <use x="641.326172" xlink:href="#DejaVuSans-103"/>
      <use x="704.802734" xlink:href="#DejaVuSans-110"/>
      <use x="768.181641" xlink:href="#DejaVuSans-97"/>
      <use x="829.460938" xlink:href="#DejaVuSans-108"/>
     </g>
    </g>
   </g>
  </g>
 </g>
 <defs>
  <clipPath id="p064afc7d7a">
   <rect height="271.8" width="410.294118" x="35.420312" y="15.118125"/>
  </clipPath>
  <clipPath id="p8794c769be">
   <rect height="271.8" width="410.294118" x="527.773254" y="15.118125"/>
  </clipPath>
 </defs>
</svg>
